<?xml version="1.0" encoding="UTF-8"?>
<svg width="50px" height="50px" viewBox="0 0 50 50" version="1.1" xmlns="http://www.w3.org/2000/svg" xmlns:xlink="http://www.w3.org/1999/xlink">
    <!-- Generator: Sketch 49.1 (51147) - http://www.bohemiancoding.com/sketch -->
    <title>Group 2</title>
    <desc>Created with Sketch.</desc>
    <defs>
        <rect id="path-1" x="0" y="0" width="50" height="50" rx="4"></rect>
    </defs>
    <g id="Two-way-Messaging" stroke="none" stroke-width="1" fill="none" fill-rule="evenodd">
        <g id="messages" transform="translate(-108.000000, -505.000000)">
            <g id="Group-2" transform="translate(108.000000, 505.000000)">
                <g id="Bitmap">
                    <mask id="mask-2" fill="white">
                        <use xlink:href="#path-1"></use>
                    </mask>
                    <use id="Mask" fill="#1AACE5" xlink:href="#path-1"></use>
                </g>
                <g id="Page-1" transform="translate(12.000000, 16.000000)" fill="#FFFFFF">
                    <path d="M6.11557214,10.6606096 C6.66925044,10.5171398 7.50517255,10.2998723 8,10.0821465 C7.98038305,10.0161412 7.96757199,9.94601054 7.96076611,9.87267132 C6.97631569,7.72383197 5.78248441,4.11325017 7.02675927,1.09488262 C6.77213932,1.03162754 6.50390761,1 6.22686829,1 C3.5901906,1 1.8346741,3.88635694 4.28999513,8.97839112 C4.93815504,10.3218741 4.02376514,10.8618341 2.76027368,11.2509904 C2.407569,11.3596241 2.02964253,11.4567986 1.64891364,11.5562649 C0.0543361663,11.9692565 -0.00531536347,12.858953 0.000289478255,14.4160364 C0.00109016993,14.6016763 0.0018908616,14.7951085 0.0018908616,15 L2.69421662,15 C2.70582665,14.7630226 2.72704498,14.5200864 2.76027368,14.2762335 C2.95924556,12.8135743 3.64303625,11.3018695 5.98025525,10.6954458 L6.11557214,10.6606096 Z" id="Fill-1"></path>
                    <path d="M19.7493201,12.8036371 C18.2881962,12.4667352 16.8891052,12.1538976 16.2388738,11.5114228 C16.2254854,11.4982555 16.2152209,11.483726 16.2022788,11.4696506 C15.8019647,11.0455719 15.7180639,10.4811929 16.1442623,9.67707786 C16.1643449,9.63848397 16.1826424,9.60125221 16.2022788,9.56311236 C16.5383284,8.92018353 16.8150226,8.30722172 17.0341466,7.72649716 C17.8843119,5.47579219 17.8990391,3.69638675 17.3751052,2.41506954 C17.1104606,1.76760025 16.7034523,1.25407446 16.2022788,0.864957224 C15.4712705,0.296491899 14.5345267,0 13.5000474,0 C12.4807416,0 11.5636342,0.289227166 10.8406589,0.831811882 C10.3252044,1.21911294 9.9048077,1.73218468 9.62989861,2.37919992 C9.07517134,3.68458156 9.08677464,5.50439707 9.97130357,7.78279883 C10.200692,8.3735124 10.4885432,8.99555513 10.8406589,9.64665679 C10.8464606,9.65709984 10.8513697,9.66708885 10.8567251,9.67707786 C11.2793532,10.4553123 11.2101796,11.0092482 10.8406589,11.4296946 C10.8192375,11.453759 10.8009399,11.4796396 10.777287,11.50325 C10.1225928,12.1584381 8.69360109,12.4708216 7.25122092,12.8036371 C5.49376637,13.2091 5.10282422,13.9909669 5.02070852,15.2722841 C5.00107215,15.5769488 4.99928703,15.9097644 5.00017959,16.273001 C5.00107215,16.3497347 5.00151843,16.6657506 5.00196471,17.0557759 C5.00285728,17.8072217 5.00374984,18.8369976 5.00374984,19 L21.9967912,19 C21.9967912,18.841538 21.9976838,17.8035894 21.9985763,17.05623 C21.9990226,16.6748315 21.9994689,16.3688047 21.9994689,16.2947952 C22.001254,15.9233857 21.9994689,15.5833055 21.9793862,15.2722841 C21.8977168,13.9914209 21.5067747,13.2091 19.7493201,12.8036371" id="Fill-3"></path>
                    <path d="M25.3511117,11.5562649 C24.9522902,11.4526733 24.5618776,11.3513735 24.2018972,11.2386144 C22.9485727,10.8457912 22.0840591,10.3053728 22.7091197,8.97839112 C25.1589085,3.77955669 23.3582056,1 20.771472,1 C20.4787627,1 20.1972652,1.0352945 19.9305834,1.10542514 C20.3694472,2.18717873 20.5328198,3.43944603 20.4150954,4.84022526 C20.2873604,6.35193007 19.8272742,8.00572963 19.0468495,9.76220411 C19.0488516,9.88275546 19.0324343,9.99322267 19,10.0958976 C19.5061349,10.3122483 20.3398159,10.528599 20.8956032,10.6729856 L20.9816942,10.6954458 C23.3161612,11.3009528 24.0016856,12.8149494 24.2018972,14.2812756 C24.2347319,14.5237534 24.2563548,14.7643977 24.267967,15 L26.9976517,15 C26.9976517,14.8019841 26.9992534,14.6140523 26.9996538,14.4343712 C27.0056601,12.8667452 26.951603,11.9710899 25.3511117,11.5562649" id="Fill-5"></path>
                </g>
            </g>
        </g>
    </g>
</svg>