<svg xmlns="http://www.w3.org/2000/svg" xmlns:xlink="http://www.w3.org/1999/xlink" viewBox="0 0 741.55 176.35"><defs><style>.cls-1{fill:#fff;}.cls-2{fill:url(#linear-gradient);}.cls-3{fill:url(#linear-gradient-2);}.cls-4{fill:url(#linear-gradient-3);}.cls-5{fill:url(#linear-gradient-4);}</style><linearGradient id="linear-gradient" x1="107.62" y1="106.08" x2="86.87" y2="70.16" gradientUnits="userSpaceOnUse"><stop offset="0" stop-color="#bb4226"/><stop offset="0.13" stop-color="#c64e25"/><stop offset="0.47" stop-color="#e06922"/><stop offset="0.77" stop-color="#f07921"/><stop offset="1" stop-color="#f57f20"/></linearGradient><linearGradient id="linear-gradient-2" y1="60.09" x2="55.63" y2="60.09" gradientUnits="userSpaceOnUse"><stop offset="0" stop-color="#fdbd56"/><stop offset="0.09" stop-color="#fdbb54" stop-opacity="0.96"/><stop offset="0.22" stop-color="#fcb54f" stop-opacity="0.87"/><stop offset="0.4" stop-color="#fbab46" stop-opacity="0.71"/><stop offset="0.61" stop-color="#f99e3b" stop-opacity="0.49"/><stop offset="0.83" stop-color="#f78c2c" stop-opacity="0.22"/><stop offset="1" stop-color="#f57f20" stop-opacity="0"/></linearGradient><linearGradient id="linear-gradient-3" x1="86.72" y1="69.86" x2="107.74" y2="106.32" gradientUnits="userSpaceOnUse"><stop offset="0" stop-color="#08799b"/><stop offset="0.21" stop-color="#0f89b2"/><stop offset="0.52" stop-color="#179ccd"/><stop offset="0.79" stop-color="#1ca7dd"/><stop offset="1" stop-color="#1eabe3"/></linearGradient><linearGradient id="linear-gradient-4" x1="194.25" y1="116.26" x2="138.47" y2="116.26" gradientUnits="userSpaceOnUse"><stop offset="0" stop-color="#84d4ef"/><stop offset="0.09" stop-color="#80d2ef" stop-opacity="0.96"/><stop offset="0.23" stop-color="#76ceed" stop-opacity="0.86"/><stop offset="0.42" stop-color="#65c7eb" stop-opacity="0.69"/><stop offset="0.63" stop-color="#4dbee9" stop-opacity="0.46"/><stop offset="0.87" stop-color="#30b2e5" stop-opacity="0.17"/><stop offset="1" stop-color="#1eabe3" stop-opacity="0"/></linearGradient></defs><title>Asset 1</title><g id="Layer_2" data-name="Layer 2"><g id="Layer_1-2" data-name="Layer 1"><path class="cls-1" d="M299,102.88h24.07c-1.85,23.79-21.08,35-42.15,35-27.78,0-46.43-18.37-46.43-51.13s18.65-51.13,46.43-51.13c20.93,0,39.88,11.25,42,34.75H298.74c-3.56-9.54-7.41-13.67-17.23-13.67-14.39,0-21.37,12-21.37,30.05s7,30.05,21.37,30.05C291.48,116.84,295.46,112.71,299,102.88Z"/><path class="cls-1" d="M408.17,99.9c0,27.62-22.08,37.74-37.46,37.74S333.4,127.52,333.4,99.9c0-28.06,21.93-38,37.31-38S408.17,71.84,408.17,99.9ZM370.71,80.52c-8,0-14.95,5.42-14.95,19.38,0,13.24,7,19.08,14.95,19.08s15-5.84,15-19.08C385.67,85.94,378.69,80.52,370.71,80.52Z"/><path class="cls-1" d="M469.12,62.44V83c-3.13-.15-4-.15-4.84-.15-15.1,0-21.51,6-22.93,15.24v38.6H418V62.58h23.36V78.25c2-9.69,9-16.38,21.22-16.38A32.28,32.28,0,0,1,469.12,62.44Z"/><path class="cls-1" d="M507.45,136.64l-28.2-74.06H502.6l17.67,50.56,17.66-50.56h23.35l-28.2,74.06Z"/><path class="cls-1" d="M636.06,106.73H585.64c1.42,9.83,6.41,13.67,15.67,13.67,7.4,0,11.39-2.56,12.81-6.26h20.09c-3.71,15.66-15.53,23.5-34.33,23.5-16.38,0-36.74-10-36.74-37.6,0-27.92,20.08-38.17,37.17-38.17,18.51,0,35.89,10.25,35.89,41.16A31.48,31.48,0,0,1,636.06,106.73Zm-22.22-14.1c-.29-7.83-4.56-13.53-13.53-13.53-8.12,0-13,4.56-14.53,13.53Z"/><path class="cls-1" d="M691.32,136.64l-14.1-21.93L663,136.64H637.77L664.12,97.9,640.19,62.58h25.49L677.22,81l11.4-18.37h25.49L690.18,97.9l26.49,38.74Z"/><path class="cls-1" d="M729.24,54.26h-3v8.53h-2.3V54.26h-3v-2h8.34Z"/><path class="cls-1" d="M733,52.28,736,59.74l2.94-7.46h2.66V62.79h-2.3V56.13h-.08l-2.38,6.66H735.1l-2.37-6.66h-.07v6.66h-2.3V52.28Z"/><polygon class="cls-2" points="97.28 0 0 56.16 0 56.16 0 120.18 97.28 64.02 139.11 88.17 194.55 56.16 97.28 0"/><polygon class="cls-3" points="97.28 0 0 56.16 0 56.16 0 120.18 97.28 64.02 139.11 88.17 194.55 56.16 97.28 0"/><polygon class="cls-4" points="194.55 56.16 97.28 112.33 55.44 88.17 0 120.18 97.28 176.35 194.55 120.18 194.55 120.18 194.55 56.16"/><polygon class="cls-5" points="194.55 56.16 97.28 112.33 55.44 88.17 0 120.18 97.28 176.35 194.55 120.18 194.55 120.18 194.55 56.16"/></g></g></svg>