<?xml version="1.0" encoding="UTF-8"?>
<svg width="50px" height="50px" viewBox="0 0 50 50" version="1.1" xmlns="http://www.w3.org/2000/svg" xmlns:xlink="http://www.w3.org/1999/xlink">
    <!-- Generator: Sketch 48.2 (47327) - http://www.bohemiancoding.com/sketch -->
    <title>Group 10</title>
    <desc>Created with Sketch.</desc>
    <defs>
        <rect id="path-1" x="0" y="0" width="50" height="50" rx="4"></rect>
    </defs>
    <g id="observations_thumbsup_detail" stroke="none" stroke-width="1" fill="none" fill-rule="evenodd" transform="translate(-902.000000, -322.000000)">
        <g id="Group-10" transform="translate(902.000000, 322.000000)">
            <g id="Group-5">
                <g id="Group-3">
                    <g id="Group-2">
                        <mask id="mask-2" fill="white">
                            <use xlink:href="#path-1"></use>
                        </mask>
                        <use id="Mask" fill="#279F3E" xlink:href="#path-1"></use>
                    </g>
                </g>
                <path d="M33.266652,33.5708984 C32.4161108,33.50625 32.4970303,32.725 33.2992364,32.578125 C34.6316525,32.334375 35.2175809,31.6260742 35.2175809,30.9708984 C35.2175809,30.4198242 34.8018592,29.9063477 34.064625,29.740625 C33.1858309,29.5438477 33.3674569,28.9520508 34.0973078,28.8948242 C35.2858998,28.8010742 35.8696624,28.0990234 35.8696624,27.4260742 C35.8696624,26.8375 35.4234236,26.271875 34.5456139,26.1551758 C33.6457532,26.0354492 33.9387173,25.390625 34.5780999,25.1948242 C35.125242,25.028125 36,24.6740234 36,23.621875 C36,22.921875 35.4749089,21.9948242 33.6152361,22.0698242 C32.3257408,22.121875 29.7647652,21.8635742 28.3870656,21.1479492 C29.3393961,17.3385742 29.1105179,12 26.615597,12 C24.9418816,12 24.6247006,13.8823242 24.121759,15.6135742 C22.3178045,21.83125 18.7076312,22.9698242 15,23.5333984 L15,33.875 C22.0226745,33.875 23.9253667,37 29.1809041,37 C32.5400496,37 34.2757837,35.1926758 34.2757837,34.2229492 C34.2747008,33.875 33.9891198,33.6270508 33.266652,33.5708984" id="Fill-1" fill="#FFFFFF"></path>
            </g>
        </g>
    </g>
</svg>