<svg id="Layer_1" data-name="Layer 1" xmlns="http://www.w3.org/2000/svg" viewBox="0 0 127.47 127.47"><defs><style>.cls-1{fill:#f1f1f1;}</style></defs><title>alerts_exclamation_circle</title><path class="cls-1" d="M64.26,0A63.74,63.74,0,1,0,128,63.74,63.74,63.74,0,0,0,64.26,0Zm8.37,107.68a11.74,11.74,0,0,1-8.49,3.45A11.73,11.73,0,0,1,52.42,99.4a11.73,11.73,0,0,1,3.42-8.55,11.21,11.21,0,0,1,8.31-3.48,12,12,0,0,1,12,12A11.14,11.14,0,0,1,72.64,107.68Zm5.63-75.53q-.21,1.6-.62,3.67L70.7,80.89a23,23,0,0,0-6.69-1,22.57,22.57,0,0,0-6,.8L51.1,36.44q-.14-.62-.28-1.52a40.15,40.15,0,0,1-.76-5.34A11.08,11.08,0,0,1,54,20.74q3.92-3.36,10.29-3.36t10.29,3.4a11.11,11.11,0,0,1,3.92,8.8A20.79,20.79,0,0,1,78.27,32.15Z" transform="translate(-0.53)"/></svg>