<svg id="Layer_1" data-name="Layer 1" xmlns="http://www.w3.org/2000/svg" viewBox="0 0 122.26 128"><defs><style>.cls-1{fill:#f1f1f1;}</style></defs><title>Alerts</title><path class="cls-1" d="M111.4,85.33q-.83.28-3.54-1.53a36.12,36.12,0,0,1-6.25-5.69,90.6,90.6,0,0,1-7.5-9.65A80.57,80.57,0,0,1,86.82,55,90.63,90.63,0,0,1,80,27.76a46.86,46.86,0,0,1,0-8.89q.42-3.4,1.25-3.68t3.33,1.87a47.18,47.18,0,0,1,6.18,6.46A102.76,102.76,0,0,1,98.2,34a104.12,104.12,0,0,1,7.22,13.82q6.53,15.28,7,26.11T111.4,85.33Zm3.89-42.5a139.88,139.88,0,0,0-9.51-18.19A100.63,100.63,0,0,0,95.22,10.4,41.82,41.82,0,0,0,85,1.79Q80.15-.92,76.68.47q-5.83,2.36-6.32,8.89T65.91,25.05Q62,34.22,50.08,45.4T9.6,68.24q-5,1.94-6.32,8.47A18.94,18.94,0,0,0,4,88.1q2.08,4.72,7.78,8.4t10.55,1.74q1-.42,3.19-1.18l2.22-.76q3.47,4.86,6.74,4.24A3.85,3.85,0,0,1,39.18,103q1.53,3.61,4.31,9.93t3.89,9a14.76,14.76,0,0,0,3.47,4.65q2.22,2,4.17,1.32t7-2.71q5.07-1.87,7.57-2.85a5,5,0,0,0,3.19-2.92,5.23,5.23,0,0,0,0-3.75,6,6,0,0,0-3.4-2.85,6.18,6.18,0,0,1-3.54-3.26q-1-2.22-3.4-7.71t-3.26-7.71a4.35,4.35,0,0,1,.9-5.14,9.51,9.51,0,0,1,6-2.64q13.05-1.39,21.32,1.18a69,69,0,0,1,13.82,5.76q5.56,3.19,9.51,5.56a9,9,0,0,0,8.4.56Q122.65,98,124,92.62a41.23,41.23,0,0,0,.83-13.12,99,99,0,0,0-3-17.29A136.88,136.88,0,0,0,115.29,42.83Z" transform="translate(-2.77)"/></svg>