<svg id="Layer_1" data-name="Layer 1" xmlns="http://www.w3.org/2000/svg" viewBox="0 0 38.8 128"><defs><style>.cls-1{fill:#f1f1f1;}</style></defs><title>Alert_exclamation</title><path class="cls-1" d="M66,95.55A16.45,16.45,0,0,1,82.44,112a15.22,15.22,0,0,1-4.84,11.3A16,16,0,0,1,66,128a16,16,0,0,1-16-16,16,16,0,0,1,4.67-11.68A15.31,15.31,0,0,1,66,95.55Z" transform="translate(-46.77)"/><path class="cls-1" d="M48.19,26l9.44,60.47a30.81,30.81,0,0,1,8.2-1.09A31.36,31.36,0,0,1,75,86.71l9.48-61.54q.57-2.84.85-5a28.38,28.38,0,0,0,.28-3.5,15.17,15.17,0,0,0-5.35-12Q74.88,0,66.17,0T52.12,4.59a15.13,15.13,0,0,0-5.35,12.07,54.79,54.79,0,0,0,1,7.29Q48,25.17,48.19,26Z" transform="translate(-46.77)"/></svg>