<svg id="Layer_1" data-name="Layer 1" xmlns="http://www.w3.org/2000/svg" viewBox="0 0 128 81.48"><defs><style>.cls-1{fill:#f1f1f1;}</style></defs><title>back</title><path class="cls-1" d="M118.33,66.22c-6.65-9-17-13.57-30.91-13.57H27.6L41.74,38.31a7.79,7.79,0,0,0,2.8-5.56A7.82,7.82,0,0,0,41.92,27a7.91,7.91,0,0,0-5.74-2.61,7.79,7.79,0,0,0-5.57,2.81L2.77,55a7.06,7.06,0,0,0,0,11.21L30.61,94.08a7.8,7.8,0,0,0,5.57,2.81,7.78,7.78,0,0,0,5.74-2.61A7.26,7.26,0,0,0,41.74,83L27.6,68.63H87.42c7.69,0,13.52,2.8,17.84,8.56A33.28,33.28,0,0,1,112,97.88a8,8,0,1,0,16,0C128,85.57,124.75,74.92,118.33,66.22Z" transform="translate(0 -24.39)"/></svg>