<?xml version="1.0" encoding="utf-8"?>
<!-- Generator: Adobe Illustrator 21.0.2, SVG Export Plug-In . SVG Version: 6.00 Build 0)  -->
<svg version="1.1" id="Layer_1" xmlns="http://www.w3.org/2000/svg" xmlns:xlink="http://www.w3.org/1999/xlink" x="0px" y="0px"
	 viewBox="0 0 102.3 102.2" style="enable-background:new 0 0 102.3 102.2;" xml:space="preserve">
<style type="text/css">
	.st0{fill-rule:evenodd;clip-rule:evenodd;fill:#F1F1F1;}
</style>
<title>body.protection</title>
<g>
	<path class="st0" d="M78.4,5.1V46c0,17.9-14.5,32.4-32.4,32.4H5.1c-2.8,0-5.1,2.3-5.1,5.1L0,99c0,1.8,1.4,3.2,3.2,3.2H50
		c28.9,0,52.3-23.4,52.3-52.3V3.2c0-1.8-1.4-3.2-3.2-3.2L83.6,0C80.7,0,78.4,2.3,78.4,5.1z"/>
</g>
<g>
	<path class="st0" d="M43.1,7.2v20c0,8.8-7.1,15.9-15.9,15.9h-20c-4,0-7.2,3.2-7.2,7.2l0,6.8c0,4,3.2,7.2,7.2,7.2h27.7
		c16.3,0,29.4-13.2,29.4-29.4V7.2c0-4-3.2-7.2-7.2-7.2l-6.8,0C46.4,0,43.1,3.2,43.1,7.2z"/>
</g>
<path class="st0" d="M19.2,28H8.8C4,28,0,24.1,0,19.2L0,8.8C0,4,4,0,8.8,0l10.4,0C24.1,0,28,4,28,8.8v10.4C28,24.1,24.1,28,19.2,28z
	"/>
</svg>
