<svg id="Layer_1" data-name="Layer 1" xmlns="http://www.w3.org/2000/svg" viewBox="0 0 128 110.93"><defs><style>.cls-1{fill:#f1f1f1;}</style></defs><title>camera</title><path class="cls-1" d="M64,102.4a28.76,28.76,0,0,0,21.1-8.77,28.76,28.76,0,0,0,8.77-21.1,28.76,28.76,0,0,0-8.77-21.1A28.76,28.76,0,0,0,64,42.67a28.76,28.76,0,0,0-21.1,8.77,28.76,28.76,0,0,0-8.77,21.1,28.76,28.76,0,0,0,8.77,21.1A28.76,28.76,0,0,0,64,102.4Zm46.93-76.8A17.07,17.07,0,0,1,128,42.67V102.4a17.07,17.07,0,0,1-17.07,17.07H17.07a16.44,16.44,0,0,1-12.07-5A16.44,16.44,0,0,1,0,102.4V42.67A16.44,16.44,0,0,1,5,30.6a16.44,16.44,0,0,1,12.07-5H32l3.4-9.07A12.38,12.38,0,0,1,40,10.9a11.87,11.87,0,0,1,6.9-2.37H81.07A11.87,11.87,0,0,1,88,10.9a12.38,12.38,0,0,1,4.63,5.63L96,25.6ZM64,53.33a19.23,19.23,0,0,1,19.2,19.2A19.23,19.23,0,0,1,64,91.73a19.23,19.23,0,0,1-19.2-19.2A19.23,19.23,0,0,1,64,53.33Z" transform="translate(0 -8.53)"/></svg>