<?xml version="1.0" encoding="UTF-8"?>
<svg width="25px" height="25px" viewBox="0 0 25 25" version="1.1" xmlns="http://www.w3.org/2000/svg" xmlns:xlink="http://www.w3.org/1999/xlink">
    <!-- Generator: Sketch 44.1 (41455) - http://www.bohemiancoding.com/sketch -->
    <title>Fill 1</title>
    <desc>Created with Sketch.</desc>
    <defs></defs>
    <g id="desktop" stroke="none" stroke-width="1" fill="none" fill-rule="evenodd">
        <g id="Desktop-HD-Copy-3" transform="translate(-1084.000000, -357.000000)" fill="#FFFFFF">
            <g id="Group-4" transform="translate(1034.000000, 0.000000)">
                <path d="M61.1109265,374.683119 L56.4600922,370.219131 L58.3793365,368.320019 L61.1109265,370.882849 L66.9430729,364.967682 L68.8623172,366.866794 L61.1109265,374.683119 Z M74.1167265,369.12998 C73.3798277,368.387516 73.2154982,367.259502 73.7105537,366.341138 C74.0640171,365.687647 74.089855,364.908366 73.7777324,364.233399 C73.4666432,363.558432 72.8548001,363.065501 72.1230689,362.901873 C71.0988518,362.672793 70.3443831,361.810676 70.2606681,360.773681 C70.1996905,360.034285 69.7935176,359.364431 69.1630711,358.964564 C68.5336582,358.562651 67.750251,358.475724 67.0443577,358.729348 C66.0563138,359.084217 64.9504487,358.762074 64.3148347,357.93575 C63.8590529,357.345665 63.1531596,357 62.402825,357 C61.6535239,357 60.9465971,357.345665 60.4918488,357.93575 C59.8552013,358.762074 58.7493362,359.084217 57.7612923,358.729348 C57.0564325,358.475724 56.2719917,358.562651 55.6425788,358.964564 C55.0121324,359.364431 54.6059595,360.034285 54.5460154,360.773681 C54.4612669,361.810676 53.7067982,362.672793 52.6825811,362.901873 C51.9508498,363.065501 51.3390067,363.558432 51.0279176,364.233399 C50.7168285,364.908366 50.7416329,365.687647 51.0950963,366.341138 C51.5901518,367.259502 51.4258223,368.387516 50.689957,369.12998 C50.1638959,369.658704 49.9179185,370.400145 50.0243709,371.134428 C50.1318568,371.86871 50.5793705,372.511975 51.2335878,372.87298 C52.1513525,373.379205 52.6309052,374.417223 52.4159333,375.434787 C52.2629725,376.160888 52.4614081,376.915624 52.951296,377.476052 C53.4432509,378.037502 54.1708481,378.339192 54.9180822,378.292149 C55.9671037,378.226697 56.9365443,378.844395 57.3127451,379.814916 C57.5804265,380.508291 58.161264,381.037015 58.8805931,381.246664 C59.5988886,381.455291 60.3760947,381.320297 60.9796697,380.880546 C61.8261215,380.264894 62.980562,380.264894 63.8259803,380.880546 C64.4295553,381.320297 65.2067614,381.455291 65.9250569,381.246664 C66.6454195,381.037015 67.2252235,380.508291 67.4939384,379.814916 C67.8691057,378.844395 68.8385463,378.226697 69.8875678,378.292149 C70.6358354,378.339192 71.3623991,378.037502 71.854354,377.476052 C72.3442419,376.915624 72.543711,376.160888 72.3897167,375.434787 C72.1757783,374.417223 72.6542975,373.379205 73.5730957,372.87298 C74.2262795,372.511975 74.6737931,371.86871 74.7812791,371.134428 C74.8877315,370.400145 74.6417541,369.658704 74.1167265,369.12998 L74.1167265,369.12998 Z" id="Fill-1"></path>
            </g>
        </g>
    </g>
</svg>