<svg id="Layer_1" data-name="Layer 1" xmlns="http://www.w3.org/2000/svg" viewBox="0 0 127.67 127.67"><defs><style>.cls-1{fill:#f1f1f1;}</style></defs><title>edit</title><path class="cls-1" d="M106.51,113.85H14.28V21.49h35.5L63.93,7.34H14.28A13.78,13.78,0,0,0,4.16,11.5,13.62,13.62,0,0,0,0,21.49v92.37a13.62,13.62,0,0,0,4.16,10A13.78,13.78,0,0,0,14.28,128h92.23a13.85,13.85,0,0,0,10.05-4.16,13.51,13.51,0,0,0,4.23-10V64.07L106.51,78.35ZM68.23,75.44l-3.33,3.33L54.37,82.37A27.11,27.11,0,0,0,53,79.81,15.21,15.21,0,0,0,48.19,75a27.11,27.11,0,0,0-2.57-1.32l3.61-10.54,3.33-3.33,3.4.35q3.4.35,7.42,4.51T67.89,72ZM122,6.09q-6-6-10.4-5.76L107.2.55l-61.3,61.3L35.5,92.5,66.15,82.23l61.3-61.44.21-4.44Q127.87,11.92,122,6.09Z" transform="translate(0 -0.33)"/></svg>