<?xml version="1.0" encoding="UTF-8"?>
<svg width="35px" height="33px" viewBox="0 0 35 33" version="1.1" xmlns="http://www.w3.org/2000/svg" xmlns:xlink="http://www.w3.org/1999/xlink">
    <!-- Generator: Sketch 46.2 (44496) - http://www.bohemiancoding.com/sketch -->
    <title>Group 11</title>
    <desc>Created with Sketch.</desc>
    <defs>
        <filter x="-75.0%" y="-60.0%" width="253.1%" height="260.0%" filterUnits="objectBoundingBox" id="filter-1">
            <feOffset dx="0" dy="2" in="SourceAlpha" result="shadowOffsetOuter1"></feOffset>
            <feGaussianBlur stdDeviation="2" in="shadowOffsetOuter1" result="shadowBlurOuter1"></feGaussianBlur>
            <feColorMatrix values="0 0 0 0 0   0 0 0 0 0   0 0 0 0 0  0 0 0 0.5 0" type="matrix" in="shadowBlurOuter1" result="shadowMatrixOuter1"></feColorMatrix>
            <feMerge>
                <feMergeNode in="shadowMatrixOuter1"></feMergeNode>
                <feMergeNode in="SourceGraphic"></feMergeNode>
            </feMerge>
        </filter>
    </defs>
    <g id="messaging-corlink" stroke="none" stroke-width="1" fill="none" fill-rule="evenodd">
        <g id="ppe_management" transform="translate(-638.000000, -228.000000)">
            <g id="Group-11" transform="translate(643.000000, 231.000000)">
                <path d="M14.9873268,0 L0,10.9743188 L0,26.6666667 L9.19003654,17.7022885 L2.12390191,12.5288654 L14.9876322,3.11032242 L27.8742658,12.5288654 L20.8053828,17.6958355 L30,26.6666667 L30,10.9743188 L14.9879376,0 L14.9873268,0 Z M0,30 L14.999847,15.3333333 L30,30 L0,30 Z M13.8000622,14 L14.7000933,11.1428148 L12,11.1428148 L16.2002489,6 L15.3002178,8.85718519 L18,8.85718519 L13.8000622,14 Z" id="Combined-Shape" fill="#1AACE5"></path>
                <g id="Group-9" filter="url(#filter-1)" stroke="#E1AF45" fill="#E1AF45">
                    <ellipse id="Oval" cx="5.33333333" cy="5" rx="5.33333333" ry="5"></ellipse>
                </g>
            </g>
        </g>
    </g>
</svg>