<?xml version="1.0" encoding="UTF-8"?>
<svg width="192px" height="192px" viewBox="0 0 192 192" version="1.1" xmlns="http://www.w3.org/2000/svg" xmlns:xlink="http://www.w3.org/1999/xlink">
    <!-- Generator: Sketch 43.2 (39069) - http://www.bohemiancoding.com/sketch -->
    <title>gear</title>
    <desc>Created with Sketch.</desc>
    <defs></defs>
    <g id="admin" stroke="none" stroke-width="1" fill="none" fill-rule="evenodd">
        <g id="gear" fill="#FFFFFF">
            <path d="M119.01499,129.743257 L123.123869,105.853937 L131.660703,101.447331 L126.575419,131.015018 C125.974849,134.447414 122.982739,137.802023 119.613259,138.828343 L100.640473,144.607908 C99.2659886,145.02629 97.5386796,145.236236 95.8136716,145.236236 C94.111674,145.236236 92.4119774,145.032332 91.0543677,144.623012 L71.7832138,138.820791 C68.4060639,137.803533 65.4062835,134.4527 64.8064808,131.025591 L59.4619474,101.16564 L68.0432676,105.594903 L72.3630742,129.728909 C72.4773588,130.384424 73.3939371,131.408479 74.0259542,131.59879 L93.2978752,137.401766 C94.5795508,137.787674 97.0930461,137.783143 98.3739547,137.392703 L117.345974,131.613894 C117.98106,131.420562 118.903007,130.3882 119.01499,129.743257 Z M88.5899611,75.1636412 L84.6766704,50.524405 C84.2402411,48.7768665 85.2887453,46.9832606 87.0436667,46.5067278 C89.8739376,45.7318901 92.8530088,46.0762624 95.9187522,46.0762624 C98.9844955,46.0762624 101.963567,45.7318901 104.793838,46.5067278 C106.547992,46.9832606 107.597263,48.7700696 107.160067,50.524405 L103.246776,75.1636412 C102.870941,76.6664941 101.552449,77.6860175 100.000018,77.6860175 L91.8374861,77.6860175 C90.2842886,77.6860175 88.9665635,76.6664941 88.5899611,75.1636412 Z M137.212022,86.6240654 C137.968295,87.525022 137.72592,88.9591515 136.922859,89.8147959 L135.419517,91.4331948 C134.149347,92.7933145 132.646005,93.2630504 131.029913,94.0990596 L116.95756,101.362597 C115.491802,102.117044 113.996897,101.96978 112.382339,101.96978 L79.2873436,101.96978 C77.6720182,101.96978 76.1778806,102.117044 74.7113554,101.362597 L60.6390027,94.0990596 C59.0236773,93.2630504 57.5203355,92.7933145 56.2501651,91.4331948 L54.7460564,89.8147959 C53.9429957,88.9591515 53.7006202,87.525022 54.4568932,86.6240654 L58.659347,81.5944169 C58.9669185,70.1108079 65.7373255,60.0613285 75.8227544,54.259863 C75.860338,54.4622573 75.8979215,54.6729588 75.9439422,54.8753531 L81.3789829,79.3416479 C82.4159819,84.0314553 86.1045383,87.2674979 90.3998005,87.2674979 L101.72702,87.2674979 C106.02305,87.2674979 109.711606,84.0314553 110.747838,79.3416479 L116.182879,54.8753531 C116.210491,54.7469686 116.238103,54.6276467 116.257279,54.498507 C126.118741,60.3369774 132.711201,70.2671349 133.009568,81.5944169 L137.212022,86.6240654 Z" id="Combined-Shape"></path>
        </g>
    </g>
</svg>