<?xml version="1.0" encoding="UTF-8"?>
<svg width="23px" height="15px" viewBox="0 0 23 15" version="1.1" xmlns="http://www.w3.org/2000/svg" xmlns:xlink="http://www.w3.org/1999/xlink">
    <!-- Generator: Sketch 48.2 (47327) - http://www.bohemiancoding.com/sketch -->
    <title>Shape</title>
    <desc>Created with Sketch.</desc>
    <defs></defs>
    <g id="admin" stroke="none" stroke-width="1" fill="none" fill-rule="evenodd">
        <path d="M3,15 L0,15 L0,12 L3,12 L3,15 Z M3,6 L0,6 L0,9 L3,9 L3,6 Z M3,0 L0,0 L0,3 L3,3 L3,0 Z M6,0 L6,3 L23,3 L23,0 L6,0 Z M6,9 L23,9 L23,6 L6,6 L6,9 Z M6,15 L23,15 L23,12 L6,12 L6,15 Z" id="Shape" fill="#FFFFFF" fill-rule="nonzero"></path>
    </g>
</svg>