<?xml version="1.0" encoding="UTF-8"?>
<svg width="23px" height="28px" viewBox="0 0 23 28" version="1.1" xmlns="http://www.w3.org/2000/svg" xmlns:xlink="http://www.w3.org/1999/xlink">
    <!-- Generator: Sketch 49.1 (51147) - http://www.bohemiancoding.com/sketch -->
    <title>Combined Shape</title>
    <desc>Created with Sketch.</desc>
    <defs></defs>
    <g id="Observation-Dashboard" stroke="none" stroke-width="1" fill="none" fill-rule="evenodd">
        <g id="observation_site" transform="translate(-242.000000, -120.000000)" fill="#E0E0E0">
            <path d="M260.321752,143.429712 L261.516835,136.382979 L264,135.082845 L262.521139,143.804742 C262.346005,144.81759 261.475985,145.806832 260.495582,146.109706 L254.97734,147.814712 C254.57753,147.938089 254.075161,148 253.573661,148 C253.078244,148 252.584132,147.93987 252.189102,147.818721 L246.583946,146.107479 C245.60137,145.807277 244.729177,144.818926 244.554477,143.808305 L243,135 L245.496203,136.306369 L246.752561,143.425703 C246.786023,143.619008 247.052418,143.920992 247.236244,143.977113 L252.841835,145.6888 C253.214701,145.802823 253.945657,145.801487 254.318089,145.686127 L259.836331,143.981567 C260.021025,143.924555 260.289158,143.619899 260.321752,143.429712 Z M251.238263,127.363339 L250.030627,121.142364 C249.895523,120.700895 250.219681,120.247989 250.761019,120.127901 C251.634353,119.932328 252.553797,120.019249 253.499986,120.019249 C254.446175,120.019249 255.36562,119.932328 256.238954,120.127901 C256.780753,120.247989 257.104449,120.69937 256.969345,121.142364 L255.761709,127.363339 C255.645511,127.742667 255.238816,128 254.759727,128 L252.240246,128 C251.761157,128 251.354462,127.742667 251.238263,127.363339 Z M263.719105,129.446312 L264.874442,130.816453 C265.082263,131.062018 265.015728,131.45237 264.794764,131.685594 L264.381586,132.12654 C264.03248,132.497149 263.619302,132.625073 263.17491,132.85295 L259.3064,134.831448 C258.90349,135.037114 258.492776,134.996803 258.048795,134.996803 L248.95108,134.996803 C248.507099,134.996803 248.096386,135.037114 247.693476,134.831448 L243.824965,132.85295 C243.380984,132.625073 242.967806,132.497149 242.6187,132.12654 L242.205111,131.685594 C241.984558,131.45237 241.917612,131.062018 242.125433,130.816453 L243.28077,129.446312 C243.365377,126.318145 245.22673,123.580331 247.999046,122 C248.009314,122.055118 248.019582,122.112293 248.032314,122.167411 L249.526079,128.832607 C249.811525,130.110199 250.825166,130.99168 252.005967,130.99168 L255.119997,130.99168 C256.300798,130.99168 257.31485,130.110199 257.599474,128.832607 L259.09365,122.167411 C259.101043,122.132448 259.108846,122.099953 259.114186,122.06499 C261.824895,123.655193 263.636963,126.360512 263.719105,129.446312 Z" id="Combined-Shape"></path>
        </g>
    </g>
</svg>