<?xml version="1.0" encoding="UTF-8"?>
<svg width="23px" height="28px" viewBox="0 0 23 28" version="1.1" xmlns="http://www.w3.org/2000/svg" xmlns:xlink="http://www.w3.org/1999/xlink">
    <!-- Generator: Sketch 49 (51002) - http://www.bohemiancoding.com/sketch -->
    <title>Group 10</title>
    <desc>Created with Sketch.</desc>
    <defs></defs>
    <g id="Observation-Dashboard" stroke="none" stroke-width="1" fill="none" fill-rule="evenodd">
        <g id="dashboard_observations" transform="translate(-291.000000, -78.000000)" fill="#1AACE5">
            <g id="Group-10" transform="translate(291.000000, 78.000000)">
                <path d="M18.3217515,23.4297119 L19.5168346,16.3829787 L22,15.0828451 L20.521139,23.8047418 C20.346005,24.81759 19.4759845,25.8068318 18.4955818,26.1097064 L12.97734,27.814712 C12.5775304,27.9380889 12.0751609,28 11.5736606,28 C11.0782443,28 10.5841318,27.9398705 10.1891025,27.8187207 L4.58394553,26.1074794 C3.60136995,25.8072772 2.72917658,24.8189262 2.55447716,23.8083051 L1,15 L3.49620264,16.3063693 L4.75256089,23.4257032 C4.78602322,23.6190085 5.0524181,23.9209922 5.23624361,23.9771131 L10.8418352,25.6887998 C11.2147011,25.8028232 11.9456573,25.801487 12.3180887,25.6861274 L17.8363305,23.9815671 C18.0210252,23.9245555 18.2891584,23.6198993 18.3217515,23.4297119 Z M9.23826301,7.36333935 L8.03062731,1.14236416 C7.89552335,0.700895273 8.21968062,0.24798937 8.76101866,0.127900684 C9.63435276,-0.0676723195 10.5537974,0.0192490153 11.4999862,0.0192490153 C12.446175,0.0192490153 13.3656197,-0.0676723195 14.2389538,0.127900684 C14.7807529,0.24798937 15.1044491,0.699370337 14.9693452,1.14236416 L13.7617095,7.36333935 C13.6455108,7.7426671 13.2388156,8 12.7597269,8 L10.2402456,8 C9.76115682,8 9.35446163,7.7426671 9.23826301,7.36333935 Z M21.7191054,9.44631228 L22.8744424,10.8164535 C23.0822634,11.0620177 23.0157279,11.4523701 22.794764,11.6855944 L22.3815862,12.1265405 C22.0324798,12.4971491 21.619302,12.6250728 21.17491,12.8529498 L17.3063996,14.8314485 C16.9034897,15.0371136 16.4927762,14.9968032 16.0487949,14.9968032 L6.95108036,14.9968032 C6.50709908,14.9968032 6.09638558,15.0371136 5.69347565,14.8314485 L1.82496528,12.8529498 C1.38098399,12.6250728 0.96780622,12.4971491 0.618699752,12.1265405 L0.205111266,11.6855944 C-0.0154418784,11.4523701 -0.0823881774,11.0620177 0.125432849,10.8164535 L1.2807699,9.44631228 C1.36537688,6.31814541 3.22673042,3.58033098 5.99904649,2 C6.00931432,2.05511826 6.01958216,2.11229317 6.03231428,2.16741143 L7.52607925,8.83260748 C7.81152512,10.1101994 8.82516602,10.9916802 10.0059673,10.9916802 L13.119997,10.9916802 C14.3007983,10.9916802 15.3148499,10.1101994 15.5994743,8.83260748 L17.09365,2.16741143 C17.1010429,2.13244835 17.1088464,2.09995326 17.1141857,2.06499019 C19.8248947,3.6551931 21.6369627,6.36051243 21.7191054,9.44631228 Z" id="Combined-Shape"></path>
            </g>
        </g>
    </g>
</svg>