<svg id="Layer_1" data-name="Layer 1" xmlns="http://www.w3.org/2000/svg" viewBox="0 0 127.2 121.72"><defs><style>.cls-1{fill:#f1f1f1;}</style></defs><title>Home.button</title><path class="cls-1" d="M117.47,30.12,74,5.54a20.51,20.51,0,0,0-20.16,0L10.44,30.12A19.69,19.69,0,0,0,.36,47.24v33A19.7,19.7,0,0,0,10.44,97.38L53.88,122A20.51,20.51,0,0,0,74,122l43.44-24.58a19.69,19.69,0,0,0,10.08-17.12v-33A19.69,19.69,0,0,0,117.47,30.12ZM95.54,87.3a2.3,2.3,0,0,1-2.32,2.28H76.88a2.3,2.3,0,0,1-2.32-2.28V70.89a3.05,3.05,0,0,0-3.08-3H56.8a3.05,3.05,0,0,0-3.08,3V87.3a2.3,2.3,0,0,1-2.32,2.28H34.69a2.3,2.3,0,0,1-2.32-2.28V53.75a7.14,7.14,0,0,1,2.48-5.39L59.5,32.87a8.83,8.83,0,0,1,8.92,0L93.06,48.36a7.14,7.14,0,0,1,2.48,5.39Z" transform="translate(-0.36 -2.89)"/></svg>