<?xml version="1.0" encoding="UTF-8"?>
<svg width="21px" height="18px" viewBox="0 0 21 18" version="1.1" xmlns="http://www.w3.org/2000/svg" xmlns:xlink="http://www.w3.org/1999/xlink">
    <!-- Generator: Sketch 52.4 (67378) - http://www.bohemiancoding.com/sketch -->
    <title>Combined Shape 3</title>
    <desc>Created with Sketch.</desc>
    <g id="dashboard" stroke="none" stroke-width="1" fill="none" fill-rule="evenodd">
        <g id="observation_global-copy" transform="translate(-1099.000000, -238.000000)" fill="#FFFFFF" fill-rule="nonzero">
            <g id="Combined-Shape-4" transform="translate(1099.000000, 238.000000)">
                <g id="Combined-Shape-3">
                    <path d="M17.1438389,3.29541986 C17.0510614,3.01873419 17,2.71652272 17,2.4 C17,1.0745166 17.8954305,0 19,0 C20.1045695,0 21,1.0745166 21,2.4 C21,3.7254834 20.1045695,4.8 19,4.8 C18.9070315,4.8 18.8155446,4.79238801 18.7259485,4.77765506 L12.4035202,12.962595 L9.00273743,8.55998234 L3.95548577,15.0940939 C3.98464839,15.2571941 4,15.4264457 4,15.6 C4,16.9254834 3.1045695,18 2,18 C0.8954305,18 0,16.9254834 0,15.6 C0,14.2745166 0.8954305,13.2 2,13.2 C2.21093339,13.2 2.41424003,13.2391848 2.6051406,13.3118192 L9.00273743,5.02956697 L12.4035202,9.43217965 L17.1438389,3.29541986 Z" id="Combined-Shape"></path>
                </g>
            </g>
        </g>
    </g>
</svg>