<?xml version="1.0" encoding="UTF-8"?>
<svg width="14px" height="14px" viewBox="0 0 14 14" version="1.1" xmlns="http://www.w3.org/2000/svg" xmlns:xlink="http://www.w3.org/1999/xlink">
    <!-- Generator: Sketch 54.1 (76490) - https://sketchapp.com -->
    <title>Fill 1</title>
    <desc>Created with Sketch.</desc>
    <g id="Elements" stroke="none" stroke-width="1" fill="none" fill-rule="evenodd">
        <g id="Form/Search-Box" transform="translate(-18.000000, -16.000000)" fill="#999999">
            <path d="M20,21.4997053 C20,19.5700935 21.5702862,18 23.5,18 C25.4297138,18 27,19.5700935 27,21.4997053 C27,23.4299065 25.4297138,25 23.5,25 C21.5702862,25 20,23.4299065 20,21.4997053 Z M32,28.1805833 L28.2669801,24.4740833 C28.812946,23.6189167 29.1291243,22.6074167 29.1291243,21.523 C29.1291243,18.478 26.6326085,16 23.5642683,16 C20.4959281,16 18,18.478 18,21.523 C18,24.5685833 20.4959281,27.0465833 23.5642683,27.0465833 C24.6027202,27.0465833 25.5747628,26.7619167 26.4081102,26.2684167 L30.1669885,30 L32,28.1805833 L32,28.1805833 Z" id="Fill-1"></path>
        </g>
    </g>
</svg>