<?xml version="1.0" encoding="UTF-8"?>
<svg width="37px" height="38px" viewBox="0 0 37 38" version="1.1" xmlns="http://www.w3.org/2000/svg" xmlns:xlink="http://www.w3.org/1999/xlink">
    <!-- Generator: Sketch 52.5 (67469) - http://www.bohemiancoding.com/sketch -->
    <title>Group 29</title>
    <desc>Created with Sketch.</desc>
    <g id="Page-1" stroke="none" stroke-width="1" fill="none" fill-rule="evenodd">
        <g id="Group-29" transform="translate(-0.500000, 0.000000)" fill="#1AACE5">
            <path d="M31.3334243,26 L26.4986718,26 C25.9067504,26.9616577 25.2700527,27.963163 24.5994997,28.9997343 L29.4266075,28.9997343 L32.5096223,34.9997343 L5.4887395,34.9997343 L8.57230036,28.9997343 L13.3994082,28.9997343 C12.7299473,27.963163 12.0932496,26.9616577 11.4996901,26 L6.66657566,26 L0.5,38 L37.5,38 L31.3334243,26 Z" id="Fill-4"></path>
            <path d="M16.6855829,10.935275 C16.7227728,10.775901 16.7594389,10.6165269 16.7992478,10.4582445 C16.8050096,10.4353208 16.8249141,10.4074849 16.8448186,10.3992979 C17.2989545,10.2115422 17.7525666,10.0205117 18.2307974,9.90971397 C18.7357421,9.79236665 19.2391154,9.79072925 19.7299174,9.98994679 C20.248481,10.2000804 20.5842378,10.7131338 20.5847616,11.292775 C20.5852854,11.7976414 20.4962391,12.2866795 20.3584793,12.7702597 C20.1699107,13.4317711 19.9928658,14.0965573 19.8205351,14.762981 C19.7419649,15.0669924 19.6853943,15.3780993 19.6906323,15.6963015 C19.6922037,15.7732596 19.7032036,15.8513092 19.7183938,15.9271756 C19.7650122,16.165145 19.918486,16.2819466 20.1384827,16.3256107 C20.4800013,16.3932901 20.81052,16.3452595 21.1358008,16.2306412 C21.2023236,16.2071718 21.2683226,16.1815191 21.34375,16.1536832 C21.3180837,16.2666641 21.2939889,16.3736412 21.269894,16.4811641 C21.2484181,16.5734046 21.2285137,16.6661908 21.2044188,16.7573397 C21.1997046,16.7775343 21.1839905,16.803187 21.1672289,16.8091908 C20.7398068,16.9723855 20.3191942,17.1617786 19.8823437,17.2873129 C19.3842084,17.4292213 18.8708829,17.4286755 18.3727477,17.2589313 C17.9123261,17.1011946 17.5849501,16.7917252 17.4403809,16.297229 C17.3848579,16.1072901 17.3806675,15.9108015 17.3895722,15.7126756 C17.4131432,15.1859771 17.5498554,14.6843856 17.6876152,14.1817024 C17.8494699,13.5927825 18.0071342,13.0027711 18.160608,12.4116681 C18.2412735,12.1027444 18.3025582,11.7889086 18.279511,11.4652483 C18.2737492,11.3822864 18.2601303,11.298233 18.2386545,11.2174544 C18.1768459,10.9843971 17.999801,10.9096223 17.7939469,10.8752368 C17.4251907,10.8124697 17.0779102,10.9025269 16.7363916,11.0340651 C16.7138682,11.0427979 16.6908209,11.0504391 16.65625,11.0629926 C16.6677736,11.0133246 16.6766783,10.9740269 16.6855829,10.935275 Z M20.5659174,6.04878208 C21.0927804,6.05374674 21.5226528,6.26784744 21.8429616,6.70101349 C22.2476882,7.24836659 22.2123644,8.01044097 21.7657282,8.52304149 C21.0688321,9.32421252 19.7983738,9.23671049 19.2248115,8.3492786 C18.8781596,7.81371656 18.9380304,7.06591556 19.3655079,6.59179111 C19.6930011,6.22875079 20.0929381,6.0481615 20.5659174,6.04878208 Z M19,31 L25.1864208,20.8026888 L31.5,17.0953166 L31.5,7.33976022 L19,0 L6.5,7.33976022 L6.5,17.0953166 L12.8135792,20.8026888 L19,31 Z" id="Fill-6"></path>
        </g>
    </g>
</svg>