<svg id="Layer_1" data-name="Layer 1" xmlns="http://www.w3.org/2000/svg" viewBox="0 0 113.86 128.04"><defs><style>.cls-1{fill:#f1f1f1;}</style></defs><title>Kudos</title><path class="cls-1" d="M26.07,45.93q-3.47,0-12.43,3.82t-9,18.4v34.44q0,14.58,9,18.05t12.43,3.47q3.47,0-1.81-3.54T19,108V62.74q0-9.44,5.28-13.12T26.07,45.93Zm61.51-.69q-.42-1,3.26-5.42a61.73,61.73,0,0,0,7-10.83,41.22,41.22,0,0,0,4.3-13.89q1-7.5-4.72-14.58-1.25-1.67-4.17,1.6t-7.08,8.75Q82,16.36,76.54,22.61A65.83,65.83,0,0,1,64.67,33.3q-3.61,2.36-9,5.9T45.37,46.56a75.92,75.92,0,0,0-8.61,7.57q-3.61,3.75-3.61,6.67v48.6q0,3.33,5.9,6.67A71.35,71.35,0,0,0,54,122a154.86,154.86,0,0,0,19.86,4.3A137,137,0,0,0,94.66,128q3.61,0,7.78-9.65a190.77,190.77,0,0,0,7.78-22q3.61-12.36,6-23.88t2.36-15.14q0-3.61-4.72-5.62a51.77,51.77,0,0,0-10.41-3.12q-5.69-1.11-10.62-1.74T87.58,45.24Z" transform="translate(-4.68 0.04)"/></svg>