<?xml version="1.0" encoding="UTF-8"?>
<svg width="27px" height="33px" viewBox="0 0 27 33" version="1.1" xmlns="http://www.w3.org/2000/svg" xmlns:xlink="http://www.w3.org/1999/xlink">
    <!-- Generator: Sketch 49.1 (51147) - http://www.bohemiancoding.com/sketch -->
    <title>Fill 1</title>
    <desc>Created with Sketch.</desc>
    <defs></defs>
    <g id="Observation-Dashboard" stroke="none" stroke-width="1" fill="none" fill-rule="evenodd">
        <g id="dashboard_observations_behaviors" transform="translate(-1040.000000, -987.000000)" fill="#C0C0C0">
            <path d="M1063.4857,1015.47359 C1062.39214,1015.38825 1062.49618,1014.357 1063.52759,1014.16313 C1065.2407,1013.84137 1065.99403,1012.90642 1065.99403,1012.04159 C1065.99403,1011.31417 1065.45953,1010.63638 1064.51166,1010.41763 C1063.38178,1010.15788 1063.6153,1009.37671 1064.55368,1009.30117 C1066.08187,1009.17742 1066.83242,1008.25071 1066.83242,1007.36242 C1066.83242,1006.5855 1066.25869,1005.83888 1065.13008,1005.68483 C1063.97311,1005.52679 1064.34978,1004.67562 1065.17184,1004.41717 C1065.87531,1004.19713 1067,1003.72971 1067,1002.34087 C1067,1001.41688 1066.32488,1000.19317 1063.93387,1000.29217 C1062.27595,1000.36087 1058.98327,1000.01992 1057.21194,999.075293 C1058.43637,994.046918 1058.14209,987 1054.93434,987 C1052.78242,987 1052.37462,989.484668 1051.72798,991.769918 C1049.40861,999.97725 1044.76695,1001.48017 1040,1002.22409 L1040,1015.875 C1049.02915,1015.875 1051.47547,1020 1058.23259,1020 C1062.55149,1020 1064.78315,1017.61433 1064.78315,1016.33429 C1064.78176,1015.875 1064.41458,1015.54771 1063.4857,1015.47359" id="Fill-1"></path>
        </g>
    </g>
</svg>