<?xml version="1.0" encoding="UTF-8"?>
<svg width="49px" height="45px" viewBox="0 0 49 45" version="1.1" xmlns="http://www.w3.org/2000/svg" xmlns:xlink="http://www.w3.org/1999/xlink">
    <!-- Generator: Sketch 48.2 (47327) - http://www.bohemiancoding.com/sketch -->
    <title>Shape</title>
    <desc>Created with Sketch.</desc>
    <defs></defs>
    <g id="menu" stroke="none" stroke-width="1" fill="none" fill-rule="evenodd" transform="translate(-220.000000, -720.000000)">
        <g id="Group" transform="translate(141.000000, 44.000000)" fill="#FFFFFF" fill-rule="nonzero">
            <g id="Group-6" transform="translate(74.000000, 202.000000)">
                <path d="M29.5,474 C23.0728333,474 17.25,479.222045 17.25,485.663182 C17.25,492.102273 22.5624167,499.791136 29.5,510.818182 C36.4375833,499.791136 41.75,492.102273 41.75,485.663182 C41.75,479.222045 35.9292083,474 29.5,474 Z M29.5,490.363636 C27.2439583,490.363636 25.4166667,488.532955 25.4166667,486.272727 C25.4166667,484.0125 27.2439583,482.181818 29.5,482.181818 C31.7560417,482.181818 33.5833333,484.0125 33.5833333,486.272727 C33.5833333,488.532955 31.7560417,490.363636 29.5,490.363636 Z M54,519 L5,519 L13.1666667,502.636364 L19.5672917,502.636364 C20.3533333,503.9475 21.1965417,505.313864 22.082625,506.727273 L15.6901667,506.727273 L11.6068333,514.909091 L47.391125,514.909091 L43.3077917,506.727273 L36.9153333,506.727273 C37.8034583,505.313864 38.6466667,503.9475 39.4306667,502.636364 L45.8333333,502.636364 L54,519 Z" id="Shape"></path>
            </g>
        </g>
    </g>
</svg>