<?xml version="1.0" encoding="UTF-8"?>
<svg width="30px" height="30px" viewBox="0 0 45 45" version="1.1" xmlns="http://www.w3.org/2000/svg" xmlns:xlink="http://www.w3.org/1999/xlink">
    <!-- Generator: Sketch 46.2 (44496) - http://www.bohemiancoding.com/sketch -->
    <title>Group 8</title>
    <desc>Created with Sketch.</desc>
    <defs></defs>
    <g id="messaging-corlink" stroke="none" stroke-width="1" fill="none" fill-rule="evenodd">
        <g id="ppe_management" transform="translate(-559.000000, -229.000000)" fill="#1AACE5">
            <g id="Group-8" transform="translate(559.000000, 229.000000)">
                <path d="M18.9581189,32.2368617 L21.4357525,23.4506049 L14.0023977,23.4506049 L25.5652932,7.63543929 L23.0876596,16.4212131 L30.5205604,16.4212131 L18.9581189,32.2368617 Z M22.2614791,0.718085106 C10.5029331,0.718085106 0,9.0586062 0,20.4666387 C0,24.5125472 1.3709149,28.4840859 3.79770664,31.5680167 C3.89984434,35.1797796 1.9006691,40.3620002 0.099867973,44.1360244 C4.92621474,43.2088169 11.7885063,41.1602679 14.9003016,39.1324844 C32.0358299,43.5652123 44.5229581,32.4121618 44.5229581,20.4666387 C44.5229581,8.99679236 33.9469398,0.718085106 22.2614791,0.718085106 L22.2614791,0.718085106 Z" id="Fill-1"></path>
            </g>
        </g>
    </g>
</svg>