<?xml version="1.0" encoding="UTF-8"?>
<svg width="30px" height="33px" viewBox="0 0 30 33" version="1.1" xmlns="http://www.w3.org/2000/svg" xmlns:xlink="http://www.w3.org/1999/xlink">
    <!-- Generator: Sketch 46.2 (44496) - http://www.bohemiancoding.com/sketch -->
    <title>Group 10</title>
    <desc>Created with Sketch.</desc>
    <defs>
        <filter x="-75.0%" y="-69.3%" width="253.1%" height="288.9%" filterUnits="objectBoundingBox" id="filter-1">
            <feOffset dx="0" dy="2" in="SourceAlpha" result="shadowOffsetOuter1"></feOffset>
            <feGaussianBlur stdDeviation="2" in="shadowOffsetOuter1" result="shadowBlurOuter1"></feGaussianBlur>
            <feColorMatrix values="0 0 0 0 0   0 0 0 0 0   0 0 0 0 0  0 0 0 0.5 0" type="matrix" in="shadowBlurOuter1" result="shadowMatrixOuter1"></feColorMatrix>
            <feMerge>
                <feMergeNode in="shadowMatrixOuter1"></feMergeNode>
                <feMergeNode in="SourceGraphic"></feMergeNode>
            </feMerge>
        </filter>
    </defs>
    <g id="messaging-corlink" stroke="none" stroke-width="1" fill="none" fill-rule="evenodd">
        <g id="ppe_management" transform="translate(-565.000000, -228.000000)">
            <g id="Group-10" transform="translate(565.000000, 231.000000)">
                <g id="Group-8" transform="translate(0.000000, 4.038462)" fill="#1AACE5">
                    <path d="M12.6387459,18.5981894 L14.2905017,13.5291951 L9.3349318,13.5291951 L17.0435288,4.40506113 L15.391773,9.47377681 L20.3470403,9.47377681 L12.6387459,18.5981894 Z M14.840986,0.414279869 C7.00195543,0.414279869 0,5.22611896 0,11.8076762 C0,14.1418542 0.913943268,16.4331265 2.53180443,18.2123173 C2.59989623,20.2960267 1.26711274,23.2857693 0.0665786486,25.463091 C3.28414316,24.9281636 7.85900421,23.7463084 9.93353438,22.5764333 C21.35722,25.1337763 29.6819721,18.6993241 29.6819721,11.8076762 C29.6819721,5.19045713 22.6312932,0.414279869 14.840986,0.414279869 L14.840986,0.414279869 Z" id="Fill-1"></path>
                </g>
                <g id="Group-9" filter="url(#filter-1)" transform="translate(4.666667, 0.000000)" stroke="#E1AF45" fill="#E1AF45">
                    <ellipse id="Oval" cx="5.33333333" cy="4.32692308" rx="5.33333333" ry="4.32692308"></ellipse>
                </g>
            </g>
        </g>
    </g>
</svg>