<?xml version="1.0" encoding="UTF-8"?>
<svg width="33px" height="25px" viewBox="0 0 33 25" version="1.1" xmlns="http://www.w3.org/2000/svg" xmlns:xlink="http://www.w3.org/1999/xlink">
    <!-- Generator: Sketch 52.2 (67145) - http://www.bohemiancoding.com/sketch -->
    <title>Page 1</title>
    <desc>Created with Sketch.</desc>
    <g id="Core" stroke="none" stroke-width="1" fill="none" fill-rule="evenodd">
        <g id="messages_list" transform="translate(-169.000000, -699.000000)" fill="#4A4A4A">
            <path d="M194,713 C194,709.1346 190.8654,706 187,706 C183.1346,706 180,709.1346 180,713 C180,716.8654 183.1346,720 187,720 C190.8654,720 194,716.8654 194,713 Z M176,708.5 C176,707.672 175.3295,707 174.5,707 C173.6705,707 173,707.672 173,708.5 C173,709.328 173.6705,710 174.5,710 C175.3295,710 176,709.328 176,708.5 Z M202,703.166667 L202,724 L169,724 L169,703.166667 L177.15375,703.166667 C178.073625,703.166667 178.931625,702.702778 179.44175,701.929167 L181.375,699 L192.375,699 L194.30825,701.929167 C194.818375,702.702778 195.676375,703.166667 196.59625,703.166667 L202,703.166667 Z M187,709 C184.794667,709 183,710.794667 183,713 C183,715.205333 184.794667,717 187,717 C189.205333,717 191,715.205333 191,713 C191,710.794667 189.205333,709 187,709 Z M172,702 L176,702 L176,699 L172,699 L172,702 Z" id="Page-1"></path>
        </g>
    </g>
</svg>