<svg id="Layer_1" data-name="Layer 1" xmlns="http://www.w3.org/2000/svg" viewBox="0 0 127.76 127.76"><defs><style>.cls-1{fill:#f1f1f1;fill-rule:evenodd;}</style></defs><title>Mygear</title><path class="cls-1" d="M48.66,83.82C51,87.9,56.52,91.3,61.34,92.45a17,17,0,0,0,5.56,0c4.82-1.16,10.36-4.55,12.67-8.63,1.55-2.74,2.64-8.74,3.2-14.38H45.47C46,75.08,47.12,81.09,48.66,83.82Z" transform="translate(-0.24 -0.24)"/><path class="cls-1" d="M119,64.12a20.25,20.25,0,0,1,6.41-14.81,8.27,8.27,0,0,0,2.09-8.94q-.81-2.18-1.77-4.28a8.29,8.29,0,0,0-7.83-4.83A20.3,20.3,0,0,1,97,10.37a8.29,8.29,0,0,0-4.83-7.83Q90,1.58,87.86.77a8.27,8.27,0,0,0-8.94,2.09A20.25,20.25,0,0,1,64.12,9.27,20.25,20.25,0,0,1,49.31,2.85,8.27,8.27,0,0,0,40.38.77q-2.18.81-4.28,1.77a8.29,8.29,0,0,0-4.83,7.83,20.3,20.3,0,0,1-20.9,20.9A8.29,8.29,0,0,0,2.54,36.1q-1,2.1-1.77,4.28a8.27,8.27,0,0,0,2.09,8.94A20.25,20.25,0,0,1,9.27,64.12,20.25,20.25,0,0,1,2.85,78.93,8.27,8.27,0,0,0,.77,87.86Q1.58,90,2.54,92.14A8.29,8.29,0,0,0,10.37,97a20.3,20.3,0,0,1,20.9,20.9,8.29,8.29,0,0,0,4.83,7.83q2.1,1,4.28,1.77a8.27,8.27,0,0,0,8.94-2.09,20.3,20.3,0,0,1,29.61,0,8.27,8.27,0,0,0,8.94,2.09q2.18-.81,4.28-1.77A8.29,8.29,0,0,0,97,117.87,20.3,20.3,0,0,1,117.87,97a8.29,8.29,0,0,0,7.83-4.83q1-2.1,1.77-4.28a8.27,8.27,0,0,0-2.09-8.94A20.25,20.25,0,0,1,119,64.12ZM95.26,68.46a2,2,0,0,1-.34,1h-5.3c-.62,6.56-2,13.71-4,17.29-2.94,5.2-9.78,10.19-17.37,11.89a23.52,23.52,0,0,1-8.27,0c-7.59-1.7-14.43-6.7-17.36-11.89-2-3.59-3.39-10.73-4-17.29h-5.3a2,2,0,0,1-.34-1,37.38,37.38,0,0,1,.22-5.54c.44-3.93,2.28-2.74,2.38-4.71C36.34,50,41.26,42.74,48,38.16l.83,4.45c.53,2.72,4.61,1.76,4.17-.69L51.76,35.3c1.09-5.51,23.63-5.51,24.72,0l-1.57,8c-.44,2.45,3.65,3.4,4.17.69l1.14-5.85C87,42.74,91.9,50,92.66,58.21c.1,2,1.94.78,2.38,4.71A37.37,37.37,0,0,1,95.26,68.46Z" transform="translate(-0.24 -0.24)"/></svg>