<?xml version="1.0" encoding="UTF-8"?>
<svg width="30px" height="30px" viewBox="0 0 30 30" version="1.1" xmlns="http://www.w3.org/2000/svg" xmlns:xlink="http://www.w3.org/1999/xlink">
    <!-- Generator: Sketch 46.2 (44496) - http://www.bohemiancoding.com/sketch -->
    <title>Group 5</title>
    <desc>Created with Sketch.</desc>
    <defs>
        <path d="M6,7.31836466e-16 L24,2.62864817e-16 L24,8.8817842e-16 C27.3137085,2.7945311e-16 30,2.6862915 30,6 L30,24 L30,24 C30,27.3137085 27.3137085,30 24,30 L6,30 L6,30 C2.6862915,30 1.010376e-16,27.3137085 -1.77635684e-15,24 L0,6 L0,6 C-4.05812251e-16,2.6862915 2.6862915,2.38508215e-15 6,1.77635684e-15 Z" id="path-1"></path>
    </defs>
    <g id="admin" stroke="none" stroke-width="1" fill="none" fill-rule="evenodd">
        <g id="open_expanded" transform="translate(-934.000000, -435.000000)">
            <g id="Group-5" transform="translate(934.000000, 435.000000)">
                <g id="Rectangle-3">
                    <use fill="#E8E8E8" fill-rule="evenodd" xlink:href="#path-1"></use>
                    <path stroke="#DADADA" stroke-width="1" d="M6,0.5 C2.96243388,0.5 0.5,2.96243388 0.5,6 L0.5,24 C0.5,27.0375661 2.96243388,29.5 6,29.5 L24,29.5 C27.0375661,29.5 29.5,27.0375661 29.5,24 L29.5,6 C29.5,2.96243388 27.0375661,0.5 24,0.5 L6,0.5 Z"></path>
                </g>
                <rect id="Rectangle-4" fill="#1AACE5" x="7" y="13" width="16" height="4"></rect>
            </g>
        </g>
    </g>
</svg>