<?xml version="1.0" encoding="UTF-8"?>
<svg width="115px" height="86px" viewBox="0 0 115 86" version="1.1" xmlns="http://www.w3.org/2000/svg" xmlns:xlink="http://www.w3.org/1999/xlink">
    <!-- Generator: Sketch 46.2 (44496) - http://www.bohemiancoding.com/sketch -->
    <title>Page 1</title>
    <desc>Created with Sketch.</desc>
    <defs></defs>
    <g id="worker" stroke="none" stroke-width="1" fill="none" fill-rule="evenodd">
        <g id="9" transform="translate(-303.000000, -180.000000)" fill="#1AACE5">
            <path d="M388.723633,227.62424 C388.723633,214.475188 378.060565,203.81212 364.911513,203.81212 C351.76246,203.81212 341.099392,214.475188 341.099392,227.62424 C341.099392,240.773293 351.76246,251.436361 364.911513,251.436361 C378.060565,251.436361 388.723633,240.773293 388.723633,227.62424 L388.723633,227.62424 Z M326.81212,213.336968 C326.81212,210.70811 324.683317,208.574544 322.049696,208.574544 C319.416076,208.574544 317.287272,210.70811 317.287272,213.336968 C317.287272,215.965826 319.416076,218.099392 322.049696,218.099392 C324.683317,218.099392 326.81212,215.965826 326.81212,213.336968 L326.81212,213.336968 Z M417.298177,194.287272 L417.298177,265.723633 L303,265.723633 L303,194.287272 L331.241175,194.287272 C334.427236,194.287272 337.398989,192.696623 339.165848,190.043952 L345.861816,180 L383.961209,180 L390.657177,190.043952 C392.424036,192.696623 395.395789,194.287272 398.581851,194.287272 L417.298177,194.287272 Z M364.911513,213.336968 C357.034463,213.336968 350.62424,219.747191 350.62424,227.62424 C350.62424,235.50129 357.034463,241.911513 364.911513,241.911513 C372.788562,241.911513 379.198785,235.50129 379.198785,227.62424 C379.198785,219.747191 372.788562,213.336968 364.911513,213.336968 L364.911513,213.336968 Z M312.524848,189.524848 L326.81212,189.524848 L326.81212,184.762424 L312.524848,184.762424 L312.524848,189.524848 Z" id="Page-1"></path>
        </g>
    </g>
</svg>