<svg id="Layer_1" data-name="Layer 1" xmlns="http://www.w3.org/2000/svg" viewBox="0 0 128 128"><defs><style>.cls-1{fill:#f1f1f1;}</style></defs><title>PDF</title><path class="cls-1" d="M115.38,0a12.12,12.12,0,0,1,8.86,3.76A12.12,12.12,0,0,1,128,12.62V89.54a12.62,12.62,0,0,1-3.76,9,11.9,11.9,0,0,1-8.86,3.91H38.46a12.38,12.38,0,0,1-9-3.91,12.38,12.38,0,0,1-3.91-9V12.62a11.9,11.9,0,0,1,3.91-8.86,12.62,12.62,0,0,1,9-3.76ZM60.69,48.08V41.46a9.75,9.75,0,0,0-9.62-9.62H35.15V70.31h9.62V57.69h6.31a9.75,9.75,0,0,0,9.62-9.62ZM92.85,60.69V41.46a9.5,9.5,0,0,0-2.7-6.76,9.1,9.1,0,0,0-6.91-2.85H67.31V70.31H83.23a9.1,9.1,0,0,0,6.91-2.85A9.5,9.5,0,0,0,92.85,60.69Zm25.54-19.23V31.85H99.15V70.31h9.62V57.69h9.62V48.08h-9.62V41.46ZM44.77,48.08V41.46h6.31v6.61ZM12.62,25.54v89.84h89.84V128H12.62a12.12,12.12,0,0,1-8.86-3.76A12.12,12.12,0,0,1,0,115.38V25.54Zm64.3,35.15V41.46h6.31V60.69Z"/></svg>