<?xml version="1.0" encoding="UTF-8"?>
<svg width="23px" height="27px" viewBox="0 0 23 27" version="1.1" xmlns="http://www.w3.org/2000/svg" xmlns:xlink="http://www.w3.org/1999/xlink">
    <!-- Generator: Sketch 44.1 (41455) - http://www.bohemiancoding.com/sketch -->
    <title>Combined Shape</title>
    <desc>Created with Sketch.</desc>
    <defs></defs>
    <g id="desktop" stroke="none" stroke-width="1" fill="none" fill-rule="evenodd">
        <g id="Desktop-HD-Copy-3" transform="translate(-1085.000000, -433.000000)" fill="#FFFFFF">
            <g id="Group-4" transform="translate(1034.000000, 0.000000)">
                <path d="M68.2560523,454.993695 L69.3466165,448.719585 L71.6124332,447.562267 L70.2627149,455.327701 C70.1033138,456.229159 69.3091583,457.110188 68.4148427,457.379733 L63.3791518,458.897634 C63.014341,459.007515 62.5558847,459.062654 62.0980391,459.062654 C61.6463008,459.062654 61.1951733,459.009102 60.8348412,458.901601 L55.7199587,457.37775 C54.8236073,457.110585 54.027416,456.230547 53.8682185,455.330477 L52.4496911,447.488286 L54.7273152,448.651554 L55.8738632,454.989927 C55.9041962,455.162086 56.1474712,455.431036 56.315219,455.481018 L61.4303052,457.005068 C61.770483,457.10642 62.4376062,457.10523 62.7775805,457.002688 L67.8130679,455.484985 C67.98163,455.43421 68.22633,455.163078 68.2560523,454.993695 Z M60.180747,440.659318 L59.142095,434.188255 C59.0262595,433.729295 59.3045498,433.258236 59.7703349,433.133083 C60.5215356,432.929586 61.3122303,433.020029 62.1259292,433.020029 C62.9396281,433.020029 63.7303228,432.929586 64.4815235,433.133083 C64.947105,433.258236 65.2255989,433.72751 65.1095598,434.188255 L64.0709078,440.659318 C63.9711549,441.054016 63.6212053,441.321776 63.2091646,441.321776 L61.0426938,441.321776 C60.6304495,441.321776 60.2807035,441.054016 60.180747,440.659318 Z M73.0858451,443.669197 C73.2865724,443.905817 73.222242,444.282466 73.0090964,444.507186 L72.6100847,444.93223 C72.2729605,445.289442 71.8739487,445.41281 71.4450111,445.632373 L67.7099763,447.540013 C67.3209398,447.738156 66.9241674,447.699479 66.495637,447.699479 L57.7116787,447.699479 C57.2829446,447.699479 56.8863758,447.738156 56.4971358,447.540013 L52.762101,445.632373 C52.3333669,445.41281 51.9343552,445.289442 51.597231,444.93223 L51.1980157,444.507186 C50.9848701,444.282466 50.9205397,443.905817 51.121267,443.669197 L52.2366677,442.348248 C52.3183022,439.33228 54.11528,436.692961 56.7921195,435.169308 C56.8020948,435.222463 56.8120701,435.2778 56.8242847,435.330956 L58.2668343,441.756598 C58.5420709,442.988293 59.5210747,443.838183 60.6611083,443.838183 L63.6675395,443.838183 C64.8077766,443.838183 65.7867804,442.988293 66.0618135,441.756598 L67.5043631,435.330956 C67.5116919,435.297238 67.5190207,435.2659 67.5241101,435.231984 C70.1415049,436.765355 71.8912528,439.373337 71.9704444,442.348248 L73.0858451,443.669197 Z" id="Combined-Shape"></path>
            </g>
        </g>
    </g>
</svg>