<?xml version="1.0" encoding="UTF-8"?>
<svg width="192px" height="192px" viewBox="0 0 192 192" version="1.1" xmlns="http://www.w3.org/2000/svg" xmlns:xlink="http://www.w3.org/1999/xlink">
    <!-- Generator: Sketch 43.2 (39069) - http://www.bohemiancoding.com/sketch -->
    <title>preferences</title>
    <desc>Created with Sketch.</desc>
    <defs></defs>
    <g id="admin" stroke="none" stroke-width="1" fill="none" fill-rule="evenodd">
        <g id="preferences" fill="#FFFFFF">
            <path d="M132.666667,128.511895 C129.293333,128.511895 126.557083,125.710737 126.557083,122.263158 C126.557083,118.815579 129.293333,116.014421 132.666667,116.014421 C136.04,116.014421 138.77625,118.815579 138.77625,122.263158 C138.77625,125.710737 136.04,128.511895 132.666667,128.511895 M151,124.787947 L151,119.738368 C148.479167,118.820263 146.88875,118.562632 146.082083,116.585895 C145.275417,114.599789 146.233333,113.255421 147.374583,110.796211 L143.882083,107.226842 C141.503333,108.388526 140.169583,109.376895 138.221667,108.552474 C136.278333,107.728053 136.02625,106.093263 135.1325,103.526316 L130.200833,103.526316 C129.311667,106.079211 129.055,107.728053 127.111667,108.552474 C125.168333,109.376895 123.852917,108.397895 121.45125,107.226842 L117.95875,110.796211 C119.095417,113.246053 120.057917,114.599789 119.25125,116.585895 C118.444583,118.572 116.83125,118.834316 114.333333,119.738368 L114.333333,124.787947 C116.826667,125.687316 118.444583,125.959 119.25125,127.940421 C120.0625,129.945263 119.077083,131.327105 117.95875,133.730105 L121.45125,137.299474 C123.834583,136.137789 125.168333,135.149421 127.111667,135.973842 C129.055,136.798263 129.307083,138.437737 130.200833,141 L135.1325,141 C136.021667,138.447105 136.278333,136.798263 138.230833,135.973842 C138.235417,135.973842 138.235417,135.969158 138.235417,135.969158 C140.165,135.149421 141.47125,136.128421 143.882083,137.299474 L147.374583,133.730105 C146.2425,131.289632 145.275417,129.926526 146.082083,127.940421 C146.88875,125.959 148.506667,125.687316 151,124.787947 M79.9583333,105.090842 C72.79,105.090842 66.97375,99.1418947 66.97375,91.8157895 C66.97375,84.485 72.79,78.5407368 79.9583333,78.5407368 C87.1266667,78.5407368 92.9429167,84.485 92.9429167,91.8157895 C92.9429167,99.1418947 87.1266667,105.090842 79.9583333,105.090842 M118.916667,97.1792105 L118.916667,86.4523684 C113.554167,84.5037368 110.17625,83.9556842 108.466667,79.7539474 L108.466667,79.7492632 C106.757083,75.5334737 108.7875,72.6667368 111.212083,67.4532105 L103.79625,59.8741579 C98.7316667,62.3333684 95.90375,64.4318947 91.7604167,62.68 L91.7604167,62.68 C87.64,60.9327895 87.10375,57.4524211 85.20625,52 L74.7104167,52 C72.8220833,57.4243158 72.28125,60.9327895 68.15625,62.68 L68.1516667,62.68 C64.0220833,64.4318947 61.2308333,62.3521053 56.1204167,59.8741579 L48.7045833,67.4532105 C51.12,72.6573684 53.1595833,75.5287895 51.45,79.7539474 C49.7358333,83.9697368 46.3075,84.5224737 41,86.4523684 L41,97.1792105 C46.29375,99.1091053 49.7404167,99.6665263 51.45,103.877632 C53.1733333,108.126211 51.07875,111.063211 48.7045833,116.178368 L56.1204167,123.757421 C61.1941667,121.298211 64.0175,119.199684 68.1516667,120.951579 L68.15625,120.951579 C72.28125,122.698789 72.8175,126.193211 74.7104167,131.631579 L85.20625,131.631579 C87.0945833,126.207263 87.6354167,122.708158 91.7879167,120.942211 L91.7925,120.942211 C95.89,119.199684 98.6720833,121.270105 103.79625,123.757421 L111.212083,116.178368 C108.805833,110.992947 106.7525,108.107474 108.462083,103.882316 C110.171667,99.6665263 113.618333,99.1091053 118.916667,97.1792105" id="Page-1"></path>
        </g>
    </g>
</svg>