<svg id="Layer_1" data-name="Layer 1" xmlns="http://www.w3.org/2000/svg" viewBox="0 0 127.62 127.62"><defs><style>.cls-1{fill:#f1f1f1;}</style></defs><title>Record</title><path class="cls-1" d="M63.13,77.77A9.87,9.87,0,0,0,73,67.91V36.78a9.86,9.86,0,0,0-19.71,0V67.91A9.87,9.87,0,0,0,63.13,77.77Z" transform="translate(0 -0.38)"/><path class="cls-1" d="M63.81.38a63.81,63.81,0,1,0,63.81,63.81A63.81,63.81,0,0,0,63.81.38ZM48.08,36.78a15,15,0,0,1,30.09,0V67.91a15,15,0,1,1-30.09,0ZM86.47,67.91a23.38,23.38,0,0,1-20.75,23.2v14.36h8.75a2.59,2.59,0,0,1,0,5.19H51.78a2.59,2.59,0,0,1,0-5.19h8.75V91.11a23.37,23.37,0,0,1-20.75-23.2V52.35a2.59,2.59,0,0,1,5.19,0V67.91a18.16,18.16,0,1,0,36.31,0V52.35a2.59,2.59,0,1,1,5.18,0Z" transform="translate(0 -0.38)"/></svg>