<?xml version="1.0" encoding="UTF-8"?>
<svg width="22px" height="22px" viewBox="0 0 22 22" version="1.1" xmlns="http://www.w3.org/2000/svg" xmlns:xlink="http://www.w3.org/1999/xlink">
    <!-- Generator: Sketch 52.5 (67469) - http://www.bohemiancoding.com/sketch -->
    <title>Shape</title>
    <desc>Created with Sketch.</desc>
    <g id="navigation" stroke="none" stroke-width="1" fill="none" fill-rule="evenodd">
        <g id="Artboard-Copy" transform="translate(-33.000000, -162.000000)" fill="#FFFFFF" fill-rule="nonzero">
            <g id="Group" transform="translate(19.000000, 84.000000)">
                <path d="M19.976,100 L14.976,100 L14.976,96 L19.976,96 L19.976,100 Z M27.976,93 L22.976,93 L22.976,100 L27.976,100 L27.976,93 Z M35.976,89 L30.976,89 L30.976,100 L35.976,100 L35.976,89 Z M35.976,78 L29.976,79.221 L31.692,80.929 L24.842,87.662 L21.841,84.66 L14,92.457 L15.41,93.875 L21.837,87.485 L24.828,90.478 L33.108,82.341 L34.775,84.001 L35.976,78 Z" id="Shape"></path>
            </g>
        </g>
    </g>
</svg>