<svg id="Layer_1" data-name="Layer 1" xmlns="http://www.w3.org/2000/svg" viewBox="0 0 127.85 71.67"><defs><style>.cls-1{fill:#f1f1f1;}</style></defs><title>report.eyes</title><path class="cls-1" d="M64,67.5q-2-2.12.56-7.93T64,53.77A13.92,13.92,0,0,0,54,57.82a13.36,13.36,0,0,0,0,19.41,14.64,14.64,0,0,0,20.1,0,13,13,0,0,0,4.18-9.74q0-2.62-6.31-.37T64,67.5Zm0,27.59a28.14,28.14,0,0,1-11-2.18A29.18,29.18,0,0,1,43.94,87a28.07,28.07,0,0,1-6.12-8.74,26.63,26.63,0,0,1,0-21.41A27.87,27.87,0,0,1,43.94,48,28.3,28.3,0,0,1,53,42.15a29.82,29.82,0,0,1,22.1,0A28.3,28.3,0,0,1,84.14,48a27.87,27.87,0,0,1,6.12,8.8,26.63,26.63,0,0,1,0,21.41A28.07,28.07,0,0,1,84.14,87a29.18,29.18,0,0,1-9.05,5.93A28.14,28.14,0,0,1,64,95.09Zm0-63.43q-15.73,0-27.66,4.93a86.43,86.43,0,0,0-20,11.17,59.54,59.54,0,0,0-12.17,12Q.11,65.63.11,67.5t4.12,7.68a59.54,59.54,0,0,0,12.17,12,86.43,86.43,0,0,0,20,11.17q11.92,4.93,27.66,4.93T91.69,98.4a86.43,86.43,0,0,0,20-11.17,59.54,59.54,0,0,0,12.17-12Q128,69.37,128,67.5t-4.12-7.68a59.54,59.54,0,0,0-12.17-12,86.43,86.43,0,0,0-20-11.17Q79.77,31.67,64,31.67Z" transform="translate(-0.11 -31.67)"/></svg>