<?xml version="1.0" encoding="UTF-8"?>
<svg width="34px" height="24px" viewBox="0 0 34 24" version="1.1" xmlns="http://www.w3.org/2000/svg" xmlns:xlink="http://www.w3.org/1999/xlink">
    <!-- Generator: Sketch 44.1 (41455) - http://www.bohemiancoding.com/sketch -->
    <title>Combined Shape</title>
    <desc>Created with Sketch.</desc>
    <defs></defs>
    <g id="desktop" stroke="none" stroke-width="1" fill="none" fill-rule="evenodd">
        <g id="Desktop-HD-Copy-3" transform="translate(-1080.000000, -282.000000)" fill="#FFFFFF">
            <g id="Group-4" transform="translate(1034.000000, 0.000000)">
                <path d="M54.4285198,295.335294 L54.2426816,295.377381 C50.4840761,296.229079 49.8248637,298.565344 49.7138168,300.558535 L46.0035521,300.558535 C46.0035521,300.312283 46.0014999,300.079238 46.0003598,299.85638 C45.9930631,297.982285 46.0754931,296.911199 48.27283,296.413433 C50.6796053,295.866864 53.0553695,295.378612 51.9130919,293.310538 C48.528785,287.181311 50.9482155,283.706463 54.5825488,283.706463 C54.9643722,283.706463 55.3336543,283.745192 55.6849226,283.82153 C53.970195,287.454652 55.6156038,291.800002 56.9722225,294.387557 C56.9807733,294.475649 56.9989011,294.559486 57.0260357,294.639183 C56.343793,294.900994 55.1919384,295.162246 54.4285198,295.335294 Z M76.7401933,296.413421 C78.9459669,296.913314 79.0206442,297.991229 79.0123214,299.878307 C79.0115233,300.094338 79.0094711,300.320555 79.0094711,300.558524 L75.2476733,300.558524 C75.1342322,298.560744 74.467267,296.226717 70.7199487,295.377482 L70.6011491,295.350506 C69.8356782,295.176898 68.6869019,294.916318 67.9892677,294.656297 C68.0339601,294.532387 68.0561923,294.398739 68.0540261,294.254234 C69.1297212,292.139484 69.7637372,290.148532 69.9389723,288.328837 C70.1013242,286.643126 69.8758102,285.135836 69.2714371,283.834056 C69.638667,283.749546 70.0269889,283.706452 70.4304744,283.706452 C73.9946908,283.706452 76.4754594,287.053025 73.0999314,293.310527 C71.9908309,295.36696 74.2802888,295.855212 76.7401933,296.413421 Z M65.8670985,295.988378 C66.670649,296.769335 68.4007682,297.1489 70.2071608,297.558798 C72.3799852,298.051191 72.8635065,299.002398 72.9642923,300.558491 C72.9888047,300.936488 72.9909709,301.349745 72.9889187,301.801283 C72.9881206,302.06578 72.9856124,304.79736 72.9856124,305.088721 L51.9767785,305.088721 C51.9767785,304.787286 51.9743842,302.047311 51.9730161,301.774419 C51.9713059,301.333291 51.9738142,300.928989 51.9978705,300.558491 C52.0987704,299.001838 52.5820637,298.051191 54.7554581,297.558798 C56.5381364,297.154048 58.3050812,296.774484 59.1149023,295.977857 C59.6438,295.457592 59.7652219,294.759914 59.2126099,293.759457 C58.7680804,292.954323 58.405867,292.18691 58.1179889,291.457666 C57.024508,288.689004 57.0102566,286.477544 57.6959196,284.891453 C58.5125814,283.002136 60.3217103,282 62.4811954,282 C64.6364621,282 66.4673671,283.000009 67.2717158,284.934547 C67.9190711,286.491647 67.9011713,288.653969 66.8504446,291.389052 C66.5630225,292.136652 66.1988709,292.927011 65.749781,293.759457 C65.2061758,294.767413 65.330448,295.467218 65.8670985,295.988378 Z" id="Combined-Shape"></path>
            </g>
        </g>
    </g>
</svg>