<?xml version="1.0" encoding="UTF-8"?>
<svg width="192px" height="192px" viewBox="0 0 192 192" version="1.1" xmlns="http://www.w3.org/2000/svg" xmlns:xlink="http://www.w3.org/1999/xlink">
    <!-- Generator: Sketch 43.2 (39069) - http://www.bohemiancoding.com/sketch -->
    <title>role</title>
    <desc>Created with Sketch.</desc>
    <defs></defs>
    <g id="admin" stroke="none" stroke-width="1" fill="none" fill-rule="evenodd">
        <g id="role" fill="#FFFFFF">
            <path d="M60.2753537,106.600878 L59.4534794,106.788981 C42.8309465,110.595568 39.9155618,121.037293 39.4244541,129.945677 L23.0157093,129.945677 C23.0157093,128.845074 23.0066334,127.803503 23.0015912,126.807457 C22.9693213,118.431364 23.3338705,113.644239 33.0516512,111.41952 C43.6956792,108.97668 54.2025601,106.794484 49.1508066,97.5514162 C34.1836191,70.1573967 44.8836152,54.6268816 60.9565513,54.6268816 C62.6451752,54.6268816 64.2783351,54.7999765 65.8318287,55.1411636 C58.2484,71.3790665 65.5252646,90.8002146 71.5249467,102.365055 C71.562763,102.758771 71.6429335,103.133477 71.7629373,103.489672 C68.7457007,104.659814 63.651593,105.827454 60.2753537,106.600878 Z M158.949325,111.41947 C168.704418,113.653695 169.03468,118.471336 168.997873,126.90546 C168.994343,127.87099 168.985267,128.882044 168.985267,129.945627 L152.348616,129.945627 C151.84692,121.016732 148.897248,110.585012 132.324633,106.789431 L131.799238,106.668865 C128.413923,105.89294 123.333429,104.728301 120.248123,103.566164 C120.445777,103.01236 120.544099,102.415033 120.534519,101.769179 C125.291809,92.3174965 128.095762,83.4191178 128.870744,75.2861586 C129.58875,67.7520279 128.591408,61.0153343 125.918552,55.1971443 C127.542636,54.8194372 129.26,54.6268316 131.044425,54.6268316 C146.807267,54.6268316 157.778533,69.5840323 142.85017,97.5513661 C137.945144,106.742405 148.070332,108.924602 158.949325,111.41947 Z M110.862773,109.519778 C114.416497,113.010192 122.067995,114.706622 130.056815,116.538626 C139.666189,118.739333 141.804574,122.990664 142.250302,129.945477 C142.358709,131.634903 142.368289,133.481916 142.359213,135.500022 C142.355684,136.682171 142.344591,143.890716 142.344591,145.19293 L49.4324624,145.19293 C49.4324624,143.845691 49.4218738,136.599625 49.4158232,135.379957 C49.4082599,133.408376 49.4193527,131.601385 49.5257426,129.945477 C49.9719749,122.988163 52.1093522,118.739333 61.7212473,116.538626 C69.6051896,114.729635 77.4195499,113.033204 81.0010056,109.472752 C83.3400699,107.147477 83.8770613,104.029268 81.4331199,99.5578162 C79.4671765,95.9593433 77.865278,92.5294627 76.5921292,89.2701757 C71.7561808,76.8958912 71.6931536,67.0119721 74.7255167,59.9230854 C78.3372254,51.4789557 86.3381462,47 95.8885267,47 C105.420251,47 113.517478,51.4694505 117.074731,60.115691 C119.937677,67.0750067 119.858515,76.7393054 115.211648,88.9635076 C113.940516,92.3048396 112.330046,95.8372763 110.343934,99.5578162 C107.939825,104.062786 108.489422,107.190501 110.862773,109.519778 Z" id="Combined-Shape"></path>
        </g>
    </g>
</svg>