<svg id="Layer_1" data-name="Layer 1" xmlns="http://www.w3.org/2000/svg" viewBox="0 0 128 128"><defs><style>.cls-1{fill:#f1f1f1;}</style></defs><title>send.paperairplane</title><path class="cls-1" d="M126,.79a4.46,4.46,0,0,1,1.93,4.57L109.65,115.07a4.5,4.5,0,0,1-2.29,3.21,4.38,4.38,0,0,1-2.21.57,4.81,4.81,0,0,1-1.71-.36L71.08,105.29,53.79,126.36a4.21,4.21,0,0,1-3.5,1.64,3.86,3.86,0,0,1-1.57-.29,4.57,4.57,0,0,1-3-4.29V98.5l61.71-75.64L31.08,88.93,2.87,77.36a4.52,4.52,0,0,1-.57-8.14L121.15.65A4.37,4.37,0,0,1,123.43,0,4.43,4.43,0,0,1,126,.79Z" transform="translate(0 0)"/></svg>