<?xml version="1.0" encoding="UTF-8"?>
<svg width="33px" height="26px" viewBox="0 0 33 26" version="1.1" xmlns="http://www.w3.org/2000/svg" xmlns:xlink="http://www.w3.org/1999/xlink">
    <!-- Generator: Sketch 44.1 (41455) - http://www.bohemiancoding.com/sketch -->
    <title>Page 1</title>
    <desc>Created with Sketch.</desc>
    <defs></defs>
    <g id="desktop" stroke="none" stroke-width="1" fill="none" fill-rule="evenodd">
        <g id="Desktop-HD-Copy-3" transform="translate(-1080.000000, -589.000000)" fill="#FFFFFF">
            <g id="Group-4" transform="translate(1034.000000, 0.000000)">
                <path d="M72.8727915,611.156407 C71.8838728,611.156407 71.08172,610.345244 71.08172,609.34689 C71.08172,608.348536 71.8838728,607.537373 72.8727915,607.537373 C73.8617102,607.537373 74.6638631,608.348536 74.6638631,609.34689 C74.6638631,610.345244 73.8617102,611.156407 72.8727915,611.156407 M78.2473498,610.078022 L78.2473498,608.615758 C77.5083481,608.349892 77.0421051,608.275287 76.8056246,607.702861 C76.569144,607.127722 76.8499647,606.738419 77.1845309,606.026278 L76.1606776,604.992656 C75.4633286,605.329057 75.0723295,605.61527 74.5012827,605.376533 C73.9315795,605.137797 73.8576793,604.664392 73.5956696,603.921053 L72.1499134,603.921053 C71.8892473,604.660323 71.8140035,605.137797 71.2443004,605.376533 C70.6745972,605.61527 70.2889726,605.33177 69.5849055,604.992656 L68.5610521,606.026278 C68.8942747,606.735706 69.176439,607.127722 68.9399585,607.702861 C68.7034779,608.278 68.2305168,608.353962 67.4982332,608.615758 L67.4982332,610.078022 C68.2291731,610.338462 68.7034779,610.417136 68.9399585,610.990919 C69.1777827,611.571483 68.8889002,611.971639 68.5610521,612.667502 L69.5849055,613.701124 C70.2835981,613.364722 70.6745972,613.07851 71.2443004,613.317246 C71.8140035,613.555983 71.8879037,614.030744 72.1499134,614.772727 L73.5956696,614.772727 C73.8563357,614.033457 73.9315795,613.555983 74.50397,613.317246 C74.5053136,613.317246 74.5053136,613.31589 74.5053136,613.31589 C75.0709859,613.07851 75.4539231,613.36201 76.1606776,613.701124 L77.1845309,612.667502 C76.8526519,611.960787 76.569144,611.566057 76.8056246,610.990919 C77.0421051,610.417136 77.5164099,610.338462 78.2473498,610.078022 M57.4209364,604.37411 C55.3194841,604.37411 53.6144055,602.651407 53.6144055,600.529904 C53.6144055,598.407045 55.3194841,596.685699 57.4209364,596.685699 C59.5223887,596.685699 61.2274673,598.407045 61.2274673,600.529904 C61.2274673,602.651407 59.5223887,604.37411 57.4209364,604.37411 M68.8418728,602.08305 L68.8418728,598.976758 C67.2698145,598.412471 66.2795521,598.253766 65.7783746,597.037022 L65.7783746,597.035665 C65.277197,595.814852 65.8724293,594.984699 66.5832147,593.474959 L64.4092058,591.280208 C62.9244841,591.992349 62.0954585,592.600043 60.8808083,592.092727 L60.8808083,592.092727 C59.6728763,591.586768 59.5156705,590.578919 58.9594037,589 L55.8824691,589 C55.3288896,590.57078 55.1703401,591.586768 53.9610645,592.092727 L53.9597208,592.092727 C52.7491016,592.600043 51.9308251,591.997775 50.432667,591.280208 L48.2586581,593.474959 C48.9667562,594.981986 49.5646758,595.813495 49.0634982,597.037022 C48.560977,598.257835 47.5559346,598.417897 46,598.976758 L46,602.08305 C47.5519037,602.641911 48.5623207,602.80333 49.0634982,604.022787 C49.5687067,605.253096 48.9546634,606.103596 48.2586581,607.584849 L50.432667,609.7796 C51.920076,609.067459 52.747758,608.459766 53.9597208,608.967081 L53.9610645,608.967081 C55.1703401,609.473041 55.3275459,610.484959 55.8824691,612.059809 L58.9594037,612.059809 C59.5129832,610.489029 59.6715327,609.475754 60.8888701,608.964368 L60.8902138,608.964368 C62.0914276,608.459766 62.9070168,609.059321 64.4092058,609.7796 L66.5832147,607.584849 C65.8778039,606.083249 65.2758534,605.24767 65.7770309,604.024144 C66.2782085,602.80333 67.2886254,602.641911 68.8418728,602.08305" id="Page-1"></path>
            </g>
        </g>
    </g>
</svg>