<?xml version="1.0" encoding="UTF-8"?>
<svg width="30px" height="19px" viewBox="0 0 30 19" version="1.1" xmlns="http://www.w3.org/2000/svg" xmlns:xlink="http://www.w3.org/1999/xlink">
    <!-- Generator: Sketch 49.1 (51147) - http://www.bohemiancoding.com/sketch -->
    <title>Group 8</title>
    <desc>Created with Sketch.</desc>
    <defs></defs>
    <g id="Observation-Dashboard" stroke="none" stroke-width="1" fill="none" fill-rule="evenodd">
        <g id="observation_global" transform="translate(-1099.000000, -1280.000000)" fill="#BEBEBE" fill-rule="nonzero">
            <g id="Group-8" transform="translate(1099.000000, 1280.000000)">
                <path d="M3.91304348,19 L0,19 L0,15.2 L3.91304348,15.2 L3.91304348,19 Z M3.91304348,7.6 L0,7.6 L0,11.4 L3.91304348,11.4 L3.91304348,7.6 Z M3.91304348,0 L0,0 L0,3.8 L3.91304348,3.8 L3.91304348,0 Z M7.82608696,0 L7.82608696,3.8 L30,3.8 L30,0 L7.82608696,0 Z M7.82608696,11.4 L30,11.4 L30,7.6 L7.82608696,7.6 L7.82608696,11.4 Z M7.82608696,19 L30,19 L30,15.2 L7.82608696,15.2 L7.82608696,19 Z" id="Shape"></path>
            </g>
        </g>
    </g>
</svg>