<?xml version="1.0" encoding="UTF-8"?>
<svg width="90px" height="88px" viewBox="0 0 90 88" version="1.1" xmlns="http://www.w3.org/2000/svg" xmlns:xlink="http://www.w3.org/1999/xlink">
    <!-- Generator: Sketch 46.2 (44496) - http://www.bohemiancoding.com/sketch -->
    <title>Fill 1</title>
    <desc>Created with Sketch.</desc>
    <defs></defs>
    <g id="worker" stroke="none" stroke-width="1" fill="none" fill-rule="evenodd">
        <g id="7" transform="translate(-315.000000, -1127.000000)" fill="#ECEAEA">
            <path d="M393.285651,1202.92956 C389.640475,1202.702 389.987273,1199.952 393.425299,1199.435 C399.135653,1198.577 401.646775,1196.08378 401.646775,1193.77756 C401.646775,1191.83778 399.865111,1190.03034 396.705536,1189.447 C392.939275,1188.75434 393.717672,1186.67122 396.845605,1186.46978 C401.939571,1186.13978 404.44141,1183.66856 404.44141,1181.29978 C404.44141,1179.228 402.528958,1177.237 398.766917,1176.82622 C394.910371,1176.40478 396.165931,1174.135 398.906142,1173.44578 C401.251037,1172.859 405,1171.61256 405,1167.909 C405,1165.445 402.74961,1162.18178 394.779583,1162.44578 C389.253175,1162.629 378.277565,1161.71978 372.373138,1159.20078 C376.454555,1145.79178 375.473648,1127 364.78113,1127 C357.608064,1127 356.248717,1133.62578 354.093253,1139.71978 C346.362019,1161.606 330.889848,1165.61378 315,1167.59756 L315,1204 C345.097177,1204 353.251572,1215 375.775303,1215 C390.171641,1215 397.610501,1208.63822 397.610501,1205.22478 C397.605861,1204 396.381942,1203.12722 393.285651,1202.92956" id="Fill-1"></path>
        </g>
    </g>
</svg>