<svg id="Layer_1" data-name="Layer 1" xmlns="http://www.w3.org/2000/svg" viewBox="0 0 104 128"><defs><style>.cls-1{fill:#f1f1f1;}</style></defs><title>trash</title><path class="cls-1" d="M64.34,112a4.06,4.06,0,0,0,4-4V60a4,4,0,0,0-8,0v48a4.06,4.06,0,0,0,4,4Zm40-80h-80a4,4,0,0,1-2.81-6.81A3.84,3.84,0,0,1,24.34,24h80a4,4,0,0,1,2.81,6.81A3.84,3.84,0,0,1,104.34,32Zm-4,80a8.11,8.11,0,0,1-8,8h-56a8.11,8.11,0,0,1-8-8V40h72Zm-48-100a3.84,3.84,0,0,1,1.19-2.81A3.84,3.84,0,0,1,56.34,8h16a3.84,3.84,0,0,1,2.81,1.19A3.84,3.84,0,0,1,76.34,12v4h-24Zm56,4h-24V8A7.69,7.69,0,0,0,82,2.38,7.69,7.69,0,0,0,76.34,0h-24a7.69,7.69,0,0,0-5.62,2.38A7.69,7.69,0,0,0,44.34,8v8h-24a7.69,7.69,0,0,0-5.62,2.38A7.69,7.69,0,0,0,12.34,24v8a7.69,7.69,0,0,0,2.38,5.62A7.69,7.69,0,0,0,20.34,40v72a16,16,0,0,0,16,16h56a16,16,0,0,0,16-16V40a8.11,8.11,0,0,0,8-8V24A7.69,7.69,0,0,0,114,18.38,7.69,7.69,0,0,0,108.34,16Zm-64,96a4.06,4.06,0,0,0,4-4V60a4,4,0,0,0-8,0v48a4.06,4.06,0,0,0,4,4Zm40,0a4.06,4.06,0,0,0,4-4V60a4,4,0,0,0-8,0v48a4.06,4.06,0,0,0,4,4Z" transform="translate(-12.34 0)"/></svg>