<svg id="Layer_1" data-name="Layer 1" xmlns="http://www.w3.org/2000/svg" viewBox="0 0 128 97.43"><defs><style>.cls-1{fill:#f1f1f1;}</style></defs><title>utility.nav.gears</title><path class="cls-1" d="M126,53.84a36.61,36.61,0,0,1,1.92,5.44,3.23,3.23,0,0,1-2.06,3.87L124,63.8a3.2,3.2,0,0,0-2.13,3.2,29.31,29.31,0,0,1,0,4,3.2,3.2,0,0,0,2.07,3.24l1.85.69a3.23,3.23,0,0,1,2,3.91,36.58,36.58,0,0,1-2,5.41,3.23,3.23,0,0,1-4.06,1.64l-1.85-.69a3.2,3.2,0,0,0-3.69,1.08,29.4,29.4,0,0,1-2.57,3A3.2,3.2,0,0,0,113,93l1,1.72A3.23,3.23,0,0,1,113,99a36.56,36.56,0,0,1-5,2.84,3.23,3.23,0,0,1-4.16-1.35l-1-1.72a3.2,3.2,0,0,0-3.52-1.55,29.38,29.38,0,0,1-3.9.65,3.2,3.2,0,0,0-2.83,2.6l-.36,1.94a3.23,3.23,0,0,1-3.5,2.63A36.55,36.55,0,0,1,83,104a3.23,3.23,0,0,1-2.32-3.71l.36-1.94a3.2,3.2,0,0,0-1.7-3.45,29.37,29.37,0,0,1-3.41-2,3.2,3.2,0,0,0-3.84.17l-1.53,1.25a3.23,3.23,0,0,1-4.37-.24,36.61,36.61,0,0,1-3.67-4.46,3.23,3.23,0,0,1,.61-4.34L64.68,84a3.2,3.2,0,0,0,.91-3.73,29.28,29.28,0,0,1-1.32-3.73,3.2,3.2,0,0,0-3.05-2.34l-2,0a3.23,3.23,0,0,1-3.19-3,36.61,36.61,0,0,1,.06-5.77,3.23,3.23,0,0,1,3.25-2.93l2,0a3.2,3.2,0,0,0,3.1-2.27,29.36,29.36,0,0,1,1.39-3.7A3.2,3.2,0,0,0,65,52.8l-1.5-1.29A3.23,3.23,0,0,1,63,47.16a36.61,36.61,0,0,1,3.76-4.39,3.23,3.23,0,0,1,4.38-.15l1.5,1.28a3.2,3.2,0,0,0,3.84.25,29.31,29.31,0,0,1,3.44-1.94,3.2,3.2,0,0,0,1.77-3.41l-.32-1.95a3.23,3.23,0,0,1,2.39-3.67,36.5,36.5,0,0,1,5.7-.95,3.23,3.23,0,0,1,3.45,2.7l.32,1.95A3.2,3.2,0,0,0,96,39.54a29.27,29.27,0,0,1,3.89.73,3.2,3.2,0,0,0,3.55-1.48l1-1.7a3.23,3.23,0,0,1,4.19-1.27,36.57,36.57,0,0,1,5,2.94,3.23,3.23,0,0,1,.91,4.28l-1,1.7a3.2,3.2,0,0,0,.42,3.82,29.32,29.32,0,0,1,2.51,3.05,3.2,3.2,0,0,0,3.67,1.15l1.86-.66A3.23,3.23,0,0,1,126,53.84ZM108.25,66a15.93,15.93,0,1,0-7.94,16.59A15.95,15.95,0,0,0,108.25,66Z" transform="translate(0 -14.84)"/><path class="cls-1" d="M54,32.13q.51,1.25.9,2.55a3.34,3.34,0,0,1-2.12,4.07h0A3.33,3.33,0,0,0,50.54,42q0,.93,0,1.86a3.33,3.33,0,0,0,2.15,3.29h0a3.34,3.34,0,0,1,2,4.12q-.41,1.29-.95,2.53a3.34,3.34,0,0,1-4.24,1.76h0a3.33,3.33,0,0,0-3.79,1.06q-.58.73-1.21,1.42A3.33,3.33,0,0,0,44.06,62l0,0A3.34,3.34,0,0,1,43,66.46q-1.14.72-2.35,1.33a3.34,3.34,0,0,1-4.38-1.38l0,0a3.33,3.33,0,0,0-3.59-1.62q-.91.19-1.84.31a3.33,3.33,0,0,0-2.87,2.69v0a3.34,3.34,0,0,1-3.7,2.72q-1.34-.18-2.65-.5a3.34,3.34,0,0,1-2.47-3.87v0a3.33,3.33,0,0,0-1.71-3.55q-.82-.44-1.61-.95a3.33,3.33,0,0,0-3.93.22l0,0a3.34,3.34,0,0,1-4.58-.29q-.91-1-1.71-2.09a3.34,3.34,0,0,1,.6-4.55l0,0a3.33,3.33,0,0,0,1-3.82q-.35-.87-.62-1.76A3.33,3.33,0,0,0,3.39,47h0A3.34,3.34,0,0,1,0,43.79Q0,42.44,0,41.09A3.34,3.34,0,0,1,3.43,38h0a3.33,3.33,0,0,0,3.2-2.3q.29-.89.65-1.74a3.33,3.33,0,0,0-.9-3.83l0,0a3.34,3.34,0,0,1-.51-4.57q.83-1.07,1.76-2.05a3.34,3.34,0,0,1,4.59-.2l0,0a3.33,3.33,0,0,0,3.93.3q.79-.49,1.62-.92a3.33,3.33,0,0,0,1.78-3.51v0a3.34,3.34,0,0,1,2.54-3.82q1.32-.29,2.66-.44a3.34,3.34,0,0,1,3.64,2.8v0a3.33,3.33,0,0,0,2.82,2.75q.92.13,1.83.34a3.33,3.33,0,0,0,3.62-1.55l0,0a3.34,3.34,0,0,1,4.41-1.29q1.19.63,2.32,1.37a3.34,3.34,0,0,1,1,4.48l0,0a3.33,3.33,0,0,0,.39,3.92q.62.69,1.18,1.44a3.33,3.33,0,0,0,3.77,1.14h0A3.34,3.34,0,0,1,54,32.13ZM40.15,41A12.22,12.22,0,1,0,33.7,53.55,12.23,12.23,0,0,0,40.15,41Z" transform="translate(0 -14.84)"/><path class="cls-1" d="M54.68,82.1q.49.7.92,1.45a2.32,2.32,0,0,1-.78,3.11h0a2.29,2.29,0,0,0-1,2.52q.16.61.27,1.23A2.29,2.29,0,0,0,56,92.29h0a2.32,2.32,0,0,1,2,2.5q-.08.86-.23,1.7a2.32,2.32,0,0,1-2.59,1.88h0a2.29,2.29,0,0,0-2.38,1.29q-.27.57-.59,1.12a2.29,2.29,0,0,0,.28,2.69h0a2.32,2.32,0,0,1-.08,3.2q-.61.61-1.27,1.15a2.32,2.32,0,0,1-3.2-.23h0a2.29,2.29,0,0,0-2.65-.54q-.57.26-1.17.48a2.29,2.29,0,0,0-1.51,2.25h0a2.32,2.32,0,0,1-2.12,2.4q-.86.07-1.72.07a2.32,2.32,0,0,1-2.3-2.23h0a2.29,2.29,0,0,0-1.69-2.12q-.61-.17-1.2-.38a2.29,2.29,0,0,0-2.6.75h0a2.32,2.32,0,0,1-3.17.48q-.7-.49-1.36-1a2.32,2.32,0,0,1-.33-3.19h0a2.29,2.29,0,0,0,.07-2.71q-.36-.52-.67-1.06a2.29,2.29,0,0,0-2.47-1.1h0A2.32,2.32,0,0,1,20.37,98q-.22-.83-.37-1.68a2.32,2.32,0,0,1,1.79-2.65h0a2.29,2.29,0,0,0,1.79-2q.06-.63.17-1.25a2.29,2.29,0,0,0-1.19-2.43h0a2.32,2.32,0,0,1-1-3q.36-.78.8-1.52a2.32,2.32,0,0,1,3.08-.88h0a2.29,2.29,0,0,0,2.68-.4q.45-.44.93-.85a2.29,2.29,0,0,0,.65-2.63h0a2.32,2.32,0,0,1,1.17-3q.78-.36,1.59-.65a2.32,2.32,0,0,1,2.93,1.31h0a2.29,2.29,0,0,0,2.31,1.41q.63-.05,1.26-.05a2.29,2.29,0,0,0,2.19-1.59h0a2.32,2.32,0,0,1,2.81-1.53q.83.22,1.63.52A2.32,2.32,0,0,1,47,77.94h0a2.29,2.29,0,0,0,.86,2.57q.51.36,1,.77a2.29,2.29,0,0,0,2.7.19h0A2.32,2.32,0,0,1,54.68,82.1ZM46,88.6a8.36,8.36,0,1,0-2.6,11.53A8.36,8.36,0,0,0,46,88.6Z" transform="translate(0 -14.84)"/></svg>