<?xml version="1.0" encoding="utf-8"?>
<!-- Generator: Adobe Illustrator 21.0.2, SVG Export Plug-In . SVG Version: 6.00 Build 0)  -->
<svg version="1.1" id="Layer_1" xmlns="http://www.w3.org/2000/svg" xmlns:xlink="http://www.w3.org/1999/xlink" x="0px" y="0px"
	 viewBox="0 0 102.3 102.2" style="enable-background:new 0 0 102.3 102.2;" xml:space="preserve">
<style type="text/css">
	.st0{fill-rule:evenodd;clip-rule:evenodd;fill:#F1F1F1;}
	.st1{fill:#F1F1F1;}
</style>
<title>body.protection</title>
<g>
	<g>
		<path class="st0" d="M14.9,38.9V17.1c0-1.2,1-2.2,2.2-2.2H39c1.2,0,2.2-1,2.2-2.2V2.2C41.2,1,40.2,0,39,0H2.2C1,0,0,1,0,2.2v36.7
			c0,1.2,1,2.2,2.2,2.2h10.5C13.9,41.1,14.9,40.1,14.9,38.9z"/>
		<path class="st0" d="M39,87.2H17.1c-1.2,0-2.2-1-2.2-2.2V63.2c0-1.2-1-2.2-2.2-2.2H2.2C1,61,0,62,0,63.2l0,36.7
			c0,1.2,1,2.2,2.2,2.2H39c1.2,0,2.2-1,2.2-2.2V89.4C41.2,88.2,40.2,87.2,39,87.2z"/>
		<path class="st0" d="M87.4,63.2V85c0,1.2-1,2.2-2.2,2.2H63.4c-1.2,0-2.2,1-2.2,2.2v10.5c0,1.2,1,2.2,2.2,2.2h36.8
			c1.2,0,2.2-1,2.2-2.2V63.2c0-1.2-1-2.2-2.2-2.2H89.6C88.4,61,87.4,62,87.4,63.2z"/>
		<path class="st0" d="M63.4,14.9h21.8c1.2,0,2.2,1,2.2,2.2v21.8c0,1.2,1,2.2,2.2,2.2h10.5c1.2,0,2.2-1,2.2-2.2V2.2
			c0-1.2-1-2.2-2.2-2.2L63.4,0c-1.2,0-2.2,1-2.2,2.2v10.5C61.2,13.9,62.1,14.9,63.4,14.9z"/>
	</g>
	<path class="st1" d="M70.4,70.8c0,0.4-0.2,0.8-0.5,1.2c-0.3,0.3-0.7,0.5-1.2,0.5h-35c-0.4,0-0.8-0.2-1.2-0.5
		c-0.3-0.3-0.5-0.7-0.5-1.2V62c0-0.8,0.3-1.5,0.9-2.1l17.1-17.8H34.4c-0.4,0-0.8-0.2-1.2-0.5c-0.3-0.3-0.5-0.7-0.5-1.2v-9.1
		c0-0.4,0.2-0.8,0.5-1.2c0.3-0.3,0.7-0.5,1.2-0.5h33.6c0.4,0,0.8,0.2,1.2,0.5c0.3,0.3,0.5,0.7,0.5,1.2V40c0,0.8-0.3,1.5-0.8,2
		L52.6,59.9h16.2c0.4,0,0.8,0.2,1.2,0.5c0.3,0.3,0.5,0.7,0.5,1.2V70.8z"/>
</g>
</svg>
