<?xml version="1.0" encoding="UTF-8"?>
<svg width="200px" height="200px" viewBox="0 0 200 200" version="1.1" xmlns="http://www.w3.org/2000/svg" xmlns:xlink="http://www.w3.org/1999/xlink">
    <!-- Generator: Sketch 50.2 (55047) - http://www.bohemiancoding.com/sketch -->
    <title>B</title>
    <desc>Created with Sketch.</desc>
    <defs></defs>
    <g id="B" stroke="none" stroke-width="1" fill="none" fill-rule="evenodd">
        <rect id="Rectangle" fill="#F1F1F1" x="0" y="0" width="200" height="200"></rect>
        <path d="M117.366667,94.5 C125.266667,96.9 130.266667,104.5 130.266667,111.9 C130.266667,125 121.566667,133 102.966667,133 L72.066667,133 L72.066667,63 L101.666667,63 C117.566667,63 125.566667,70.4 125.566667,81.4 C125.566667,87.7 121.466667,92.4 117.366667,94.5 Z M89.166667,77.1 L89.166667,89.9 L101.266667,89.9 C105.566667,89.9 107.566667,86.5 107.566667,83.1 C107.566667,78.4 103.966667,77.1 101.766667,77.1 L89.166667,77.1 Z M102.266667,118.9 C109.366667,118.9 111.766667,115.1 111.766667,111.2 C111.766667,107.8 110.466667,102.8 103.066667,102.8 L89.166667,102.8 L89.166667,118.9 L102.266667,118.9 Z" id="A" fill="#153B4F"></path>
    </g>
</svg>