<?xml version="1.0" encoding="UTF-8"?>
<svg width="200px" height="200px" viewBox="0 0 200 200" version="1.1" xmlns="http://www.w3.org/2000/svg" xmlns:xlink="http://www.w3.org/1999/xlink">
    <!-- Generator: Sketch 50.2 (55047) - http://www.bohemiancoding.com/sketch -->
    <title>Q</title>
    <desc>Created with Sketch.</desc>
    <defs></defs>
    <g id="Q" stroke="none" stroke-width="1" fill="none" fill-rule="evenodd">
        <rect id="Rectangle" fill="#F1F1F1" x="0" y="0" width="200" height="200"></rect>
        <path d="M135.116667,98 C135.116667,107.5 132.716667,115.5 128.316667,121.5 L132.716667,126 L122.616667,135.5 L117.616667,130.4 C112.916667,132.7 107.516667,133.9 101.416667,133.9 C80.816667,133.9 67.716667,120.2 67.716667,98 C67.716667,75.6 80.816667,62.1 101.416667,62.1 C121.916667,62.1 135.116667,75.6 135.116667,98 Z M101.416667,119.1 C103.016667,119.1 104.516667,118.9 105.816667,118.5 L97.216667,109.8 L107.316667,100.3 L115.516667,108.6 C116.616667,105.6 117.116667,102 117.116667,98 C117.116667,85.2 111.716667,76.9 101.416667,76.9 C91.116667,76.9 85.716667,85.2 85.716667,98 C85.716667,110.6 91.116667,119.1 101.416667,119.1 Z" id="A" fill="#153B4F"></path>
    </g>
</svg>