<?xml version="1.0" encoding="UTF-8"?>
<svg width="200px" height="200px" viewBox="0 0 200 200" version="1.1" xmlns="http://www.w3.org/2000/svg" xmlns:xlink="http://www.w3.org/1999/xlink">
    <!-- Generator: Sketch 50.2 (55047) - http://www.bohemiancoding.com/sketch -->
    <title>R</title>
    <desc>Created with Sketch.</desc>
    <defs></defs>
    <g id="R" stroke="none" stroke-width="1" fill="none" fill-rule="evenodd">
        <rect id="Rectangle" fill="#F1F1F1" x="0" y="0" width="200" height="200"></rect>
        <path d="M130.116667,121.3 C130.116667,127 130.516667,129.7 132.116667,133 L115.016667,133 C113.316667,129.7 113.016667,127 113.016667,121.3 L113.016667,116.8 C113.016667,112.2 109.916667,108.5 104.116667,108.5 L88.816667,108.5 L88.816667,133 L71.716667,133 L71.716667,63 L102.616667,63 C121.516667,63 129.316667,72.6 129.316667,84.4 C129.316667,93.3 124.416667,97.6 120.116667,100.8 C127.616667,104.8 130.116667,109.4 130.116667,116.2 L130.116667,121.3 Z M101.616667,95 C109.416667,95 111.616667,92 111.616667,85.9 C111.616667,80.4 108.016667,77.9 102.216667,77.9 L88.816667,77.9 L88.816667,95 L101.616667,95 Z" id="A" fill="#153B4F"></path>
    </g>
</svg>