<?xml version="1.0" encoding="UTF-8"?>
<svg width="200px" height="200px" viewBox="0 0 200 200" version="1.1" xmlns="http://www.w3.org/2000/svg" xmlns:xlink="http://www.w3.org/1999/xlink">
    <!-- Generator: Sketch 50.2 (55047) - http://www.bohemiancoding.com/sketch -->
    <title>S</title>
    <desc>Created with Sketch.</desc>
    <defs></defs>
    <g id="S" stroke="none" stroke-width="1" fill="none" fill-rule="evenodd">
        <rect id="Rectangle" fill="#F1F1F1" x="0" y="0" width="200" height="200"></rect>
        <path d="M107.766667,91.8 C124.266667,95.1 130.166667,100.9 130.166667,112.5 C130.166667,126.8 116.666667,133.9 100.666667,133.9 C83.666667,133.9 72.066667,125.5 71.266667,109.4 L88.966667,109.4 C89.966667,115.2 92.966667,119.8 100.866667,119.8 C107.766667,119.8 112.366667,116.3 112.366667,112.3 C112.366667,107.9 109.966667,106.1 103.066667,104.8 L94.166667,103.2 C82.466667,101 72.766667,96.4 72.766667,82.6 C72.766667,70.1 83.666667,62.1 99.566667,62.1 C115.566667,62.1 127.166667,69.3 128.266667,84.3 L110.566667,84.3 C109.866667,78.4 105.866667,76.2 99.566667,76.2 C92.866667,76.2 90.366667,80.6 90.366667,83.2 C90.366667,85.7 91.266667,88.7 96.566667,89.6 L107.766667,91.8 Z" id="A" fill="#153B4F"></path>
    </g>
</svg>